<?xml version="1.0" encoding="UTF-8"?>
<svg version="1.1" xmlns="http://www.w3.org/2000/svg" width="512" height="512">
<path d="M0 0 C2.86681333 2.97621204 3.3708202 5.06288002 3.34057617 9.13574219 C3.34034958 10.15649841 3.34012299 11.17725464 3.33988953 12.22894287 C3.32440567 13.32386047 3.30892181 14.41877808 3.29296875 15.546875 C3.28872391 16.6732135 3.28447906 17.799552 3.28010559 18.96002197 C3.26331497 22.55692463 3.22566099 26.15326672 3.1875 29.75 C3.17245371 32.18879399 3.15876521 34.62759677 3.14648438 37.06640625 C3.11596231 43.04466047 3.05723902 49.02170287 3 55 C14.55 55 26.1 55 38 55 C37.91298828 49.43898438 37.91298828 49.43898438 37.82421875 43.765625 C37.78523383 40.17808166 37.75486866 36.59056185 37.7253418 33.00292969 C37.70018506 30.50803072 37.66605597 28.01320554 37.62280273 25.51855469 C37.56220566 21.93405972 37.53380108 18.35053837 37.51171875 14.765625 C37.48591232 13.64883362 37.4601059 12.53204224 37.43351746 11.38140869 C37.43072108 3.67490649 37.43072108 3.67490649 40.30395508 0.26855469 C44.03064215 -1.48494219 46.10083277 -1.22751561 50 0 C54.24536709 4.64583876 53.3785362 10.52440998 53.29296875 16.42578125 C53.28872391 17.52850876 53.28447906 18.63123627 53.28010559 19.76737976 C53.26333905 23.28267023 53.22568951 26.79738336 53.1875 30.3125 C53.17245059 32.69855942 53.15876264 35.08462784 53.14648438 37.47070312 C53.11599655 43.31420241 53.05726885 49.15645643 53 55 C64.55 55 76.1 55 88 55 C87.91298828 49.43898438 87.91298828 49.43898438 87.82421875 43.765625 C87.78523383 40.17808166 87.75486866 36.59056185 87.7253418 33.00292969 C87.70018506 30.50803072 87.66605597 28.01320554 87.62280273 25.51855469 C87.56220566 21.93405972 87.53380108 18.35053837 87.51171875 14.765625 C87.48591232 13.64883362 87.4601059 12.53204224 87.43351746 11.38140869 C87.4307185 3.66778238 87.4307185 3.66778238 90.33520508 0.26074219 C93.75504556 -1.3572199 95.43058115 -1.16394093 99 0 C101.52737004 1.91731521 101.9716847 2.91505409 103 6 C103.08722452 7.61095858 103.11767272 9.22531016 103.11352539 10.83862305 C103.11344986 11.8194133 103.11337433 12.80020355 103.11329651 13.81071472 C103.10813522 14.86704605 103.10297394 15.92337738 103.09765625 17.01171875 C103.09553383 18.63676079 103.09553383 18.63676079 103.09336853 20.29463196 C103.08776559 23.75894925 103.07521258 27.2232022 103.0625 30.6875 C103.05748538 33.03450428 103.05292241 35.38150956 103.04882812 37.72851562 C103.03864559 43.48572189 103.01907063 49.24278882 103 55 C114.22 55 125.44 55 137 55 C136.97679687 51.52082031 136.95359375 48.04164062 136.9296875 44.45703125 C136.91408659 41.08455775 136.90194433 37.71208827 136.89013672 34.33959961 C136.88008391 31.99713337 136.8664397 29.65467965 136.84912109 27.31225586 C136.82484148 23.94381617 136.81350958 20.57554253 136.8046875 17.20703125 C136.79436493 16.16102249 136.78404236 15.11501373 136.77340698 14.03730774 C136.77325592 13.05666855 136.77310486 12.07602936 136.77294922 11.06567383 C136.768508 10.20629715 136.76406677 9.34692047 136.75949097 8.46150208 C137.03417739 5.65020976 137.77505517 3.5382098 139 1 C141.53836472 -0.99442942 142.81663715 -1.0112263 146.0625 -0.8125 C149.16957614 0.04690404 150.09868407 0.48586987 152 3 C152.36076355 5.33488464 152.36076355 5.33488464 152.34057617 8.11401367 C152.34034958 9.15486618 152.34012299 10.19571869 152.33988953 11.26811218 C152.32440567 12.39006485 152.30892181 13.51201752 152.29296875 14.66796875 C152.28872391 15.81791824 152.28447906 16.96786774 152.28010559 18.15266418 C152.26329189 21.83117941 152.22563377 25.50914992 152.1875 29.1875 C152.17245669 31.67902856 152.15876767 34.17056568 152.14648438 36.66210938 C152.11592951 42.77511907 152.05721053 48.88694869 152 55 C163.55 55 175.1 55 187 55 C186.96519531 51.44863281 186.93039062 47.89726563 186.89453125 44.23828125 C186.87113076 40.79631352 186.85291692 37.35435466 186.83520508 33.91235352 C186.82012457 31.5213626 186.79965723 29.13039932 186.77368164 26.73950195 C186.73726694 23.30152565 186.72026601 19.86391531 186.70703125 16.42578125 C186.69154739 15.35789871 186.67606354 14.29001617 186.66011047 13.18977356 C186.65795191 3.65730836 186.65795191 3.65730836 190 0 C193.89916723 -1.22751561 195.96935785 -1.48494219 199.69604492 0.26855469 C203.39331439 4.65183866 202.6164769 9.21786757 202.48828125 14.765625 C202.48120651 15.91415955 202.47413177 17.06269409 202.46684265 18.24603271 C202.43885232 21.91468411 202.37610052 25.58180983 202.3125 29.25 C202.28742334 31.73695713 202.26460908 34.22393818 202.24414062 36.7109375 C202.19326099 42.80835237 202.09540644 48.90246855 202 55 C213.55 55 225.1 55 237 55 C236.96519531 51.36484375 236.93039062 47.7296875 236.89453125 43.984375 C236.87113959 40.46631658 236.85292072 36.94826681 236.83520508 33.43017578 C236.8201123 30.98384732 236.79963598 28.53754593 236.77368164 26.09130859 C236.73732082 22.57642943 236.72027839 19.06190782 236.70703125 15.546875 C236.69154739 14.4519574 236.67606354 13.35703979 236.66011047 12.22894287 C236.65988388 11.20818665 236.65965729 10.18743042 236.65942383 9.13574219 C236.64943108 7.79005157 236.64943108 7.79005157 236.63923645 6.41717529 C237.07738637 3.48149857 237.96339843 2.13387349 240 0 C243.65878362 -1.19308162 245.29997692 -1.32667744 248.8125 0.3125 C251 2 251 2 252 4 C252.0902835 5.63417595 252.11755658 7.27202837 252.11352539 8.90869141 C252.11344986 9.92959869 252.11337433 10.95050598 252.11329651 12.00234985 C252.10813522 13.10759003 252.10297394 14.2128302 252.09765625 15.3515625 C252.09553383 17.04531509 252.09553383 17.04531509 252.09336853 18.77328491 C252.08775744 22.39054988 252.07520303 26.00775364 252.0625 29.625 C252.05748643 32.07291577 252.05292328 34.52083252 252.04882812 36.96875 C252.0377844 42.97918766 252.02103544 48.98958946 252 55 C253.47424438 54.9685791 253.47424438 54.9685791 254.97827148 54.93652344 C258.66269062 54.86352687 262.34704731 54.81798642 266.03198242 54.78027344 C267.61965726 54.76029255 269.20725979 54.73309797 270.79467773 54.69824219 C281.29693909 54.47359489 289.68004253 54.79650843 298.3125 61.375 C303.7772202 66.71263369 306.76894815 72.13075102 307.22705078 79.80224609 C307.22673831 81.20934963 307.21568934 82.61648148 307.1953125 84.0234375 C307.19106766 85.14270126 307.19106766 85.14270126 307.18673706 86.28457642 C307.17561687 88.64821988 307.15052821 91.01147268 307.125 93.375 C307.11495962 94.98567158 307.10583562 96.59634915 307.09765625 98.20703125 C307.0757044 102.13816944 307.04123185 106.06901867 307 110 C307.63004944 109.99333817 308.26009888 109.98667633 308.90924072 109.97981262 C315.46271668 109.91347756 322.01609737 109.86820693 328.56982422 109.83520508 C331.01615268 109.8201123 333.46245407 109.79963598 335.90869141 109.77368164 C339.42357057 109.73732082 342.93809218 109.72027839 346.453125 109.70703125 C347.5480426 109.69154739 348.64296021 109.67606354 349.77105713 109.66011047 C350.79181335 109.65988388 351.81256958 109.65965729 352.86425781 109.65942383 C354.20994843 109.64943108 354.20994843 109.64943108 355.58282471 109.63923645 C358.51850143 110.07738637 359.86612651 110.96339843 362 113 C363.19308162 116.65878362 363.32667744 118.29997692 361.6875 121.8125 C360 124 360 124 358 125 C356.36582405 125.0902835 354.72797163 125.11755658 353.09130859 125.11352539 C352.07040131 125.11344986 351.04949402 125.11337433 349.99765015 125.11329651 C348.33978989 125.10555458 348.33978989 125.10555458 346.6484375 125.09765625 C345.5192691 125.0962413 344.39010071 125.09482635 343.22671509 125.09336853 C339.60945012 125.08775744 335.99224636 125.07520303 332.375 125.0625 C329.92708423 125.05748643 327.47916748 125.05292328 325.03125 125.04882812 C319.0207906 125.03863399 313.01046407 125.01906067 307 125 C307 136.55 307 148.1 307 160 C310.70734375 159.94199219 314.4146875 159.88398438 318.234375 159.82421875 C321.82191834 159.78523383 325.40943815 159.75486866 328.99707031 159.7253418 C331.49196928 159.70018506 333.98679446 159.66605597 336.48144531 159.62280273 C340.06594028 159.56220566 343.64946163 159.53380108 347.234375 159.51171875 C348.35116638 159.48591232 349.46795776 159.4601059 350.61859131 159.43351746 C358.32509351 159.43072108 358.32509351 159.43072108 361.73144531 162.30395508 C363.48494219 166.03064215 363.22751561 168.10083277 362 172 C357.35416124 176.24536709 351.47559002 175.3785362 345.57421875 175.29296875 C344.47149124 175.28872391 343.36876373 175.28447906 342.23262024 175.28010559 C338.71732977 175.26333905 335.20261664 175.22568951 331.6875 175.1875 C329.30144058 175.17245059 326.91537216 175.15876264 324.52929688 175.14648438 C318.68579759 175.11599655 312.84354357 175.05726885 307 175 C307 186.55 307 198.1 307 210 C310.70734375 209.94199219 314.4146875 209.88398438 318.234375 209.82421875 C321.82191834 209.78523383 325.40943815 209.75486866 328.99707031 209.7253418 C331.49196928 209.70018506 333.98679446 209.66605597 336.48144531 209.62280273 C340.06594028 209.56220566 343.64946163 209.53380108 347.234375 209.51171875 C348.35116638 209.48591232 349.46795776 209.4601059 350.61859131 209.43351746 C358.33221762 209.4307185 358.33221762 209.4307185 361.73925781 212.33520508 C363.3572199 215.75504556 363.16394093 217.43058115 362 221 C360.31781905 223.25165753 359.47348464 223.92684178 356.66511536 224.36076355 C355.74800278 224.35410172 354.8308902 224.34743988 353.88598633 224.34057617 C352.84513382 224.34034958 351.80428131 224.34012299 350.73188782 224.33988953 C349.04895882 224.31666374 349.04895882 224.31666374 347.33203125 224.29296875 C346.18208176 224.28872391 345.03213226 224.28447906 343.84733582 224.28010559 C340.16882059 224.26329189 336.49085008 224.22563377 332.8125 224.1875 C330.32097144 224.17245669 327.82943432 224.15876767 325.33789062 224.14648438 C319.22488093 224.11592951 313.11305131 224.05721053 307 224 C307 235.88 307 247.76 307 260 C310.71894531 259.96519531 314.43789063 259.93039062 318.26953125 259.89453125 C321.86368034 259.87114805 325.45782102 259.85292437 329.05200195 259.83520508 C331.55366802 259.82010056 334.05530753 259.79961571 336.55688477 259.77368164 C340.14866684 259.73737225 343.74009941 259.72029025 347.33203125 259.70703125 C348.45398392 259.69154739 349.57593658 259.67606354 350.73188782 259.66011047 C351.77274033 259.65988388 352.81359283 259.65965729 353.88598633 259.65942383 C354.80309891 259.65276199 355.72021149 259.64610016 356.66511536 259.63923645 C359.47348464 260.07315822 360.31781905 260.74834247 362 263 C363.16394093 266.56941885 363.3572199 268.24495444 361.73925781 271.66479492 C357.35635675 275.40119855 352.80445067 274.61699262 347.234375 274.48828125 C346.08584045 274.48120651 344.93730591 274.47413177 343.75396729 274.46684265 C340.08531589 274.43885232 336.41819017 274.37610052 332.75 274.3125 C330.26304287 274.28742334 327.77606182 274.26460908 325.2890625 274.24414062 C319.19164763 274.19326099 313.09753145 274.09540644 307 274 C307 285.55 307 297.1 307 309 C310.55136719 308.96519531 314.10273438 308.93039062 317.76171875 308.89453125 C321.20368648 308.87113076 324.64564534 308.85291692 328.08764648 308.83520508 C330.4786374 308.82012457 332.86960068 308.79965723 335.26049805 308.77368164 C338.69847435 308.73726694 342.13608469 308.72026601 345.57421875 308.70703125 C346.64210129 308.69154739 347.70998383 308.67606354 348.81022644 308.66011047 C358.34269164 308.65795191 358.34269164 308.65795191 362 312 C363.22751561 315.89916723 363.48494219 317.96935785 361.73144531 321.69604492 C357.34816134 325.39331439 352.78213243 324.6164769 347.234375 324.48828125 C346.08584045 324.48120651 344.93730591 324.47413177 343.75396729 324.46684265 C340.08531589 324.43885232 336.41819017 324.37610052 332.75 324.3125 C330.26304287 324.28742334 327.77606182 324.26460908 325.2890625 324.24414062 C319.19164763 324.19326099 313.09753145 324.09540644 307 324 C307 335.55 307 347.1 307 359 C312.45273437 358.94779297 312.45273437 358.94779297 318.015625 358.89453125 C321.53368342 358.87113959 325.05173319 358.85292072 328.56982422 358.83520508 C331.01615268 358.8201123 333.46245407 358.79963598 335.90869141 358.77368164 C339.42357057 358.73732082 342.93809218 358.72027839 346.453125 358.70703125 C347.5480426 358.69154739 348.64296021 358.67606354 349.77105713 358.66011047 C350.79181335 358.65988388 351.81256958 358.65965729 352.86425781 358.65942383 C354.20994843 358.64943108 354.20994843 358.64943108 355.58282471 358.63923645 C358.51850143 359.07738637 359.86612651 359.96339843 362 362 C363.19308162 365.65878362 363.32667744 367.29997692 361.6875 370.8125 C360 373 360 373 358 374 C356.36582405 374.0902835 354.72797163 374.11755658 353.09130859 374.11352539 C352.07040131 374.11344986 351.04949402 374.11337433 349.99765015 374.11329651 C348.33978989 374.10555458 348.33978989 374.10555458 346.6484375 374.09765625 C344.95468491 374.09553383 344.95468491 374.09553383 343.22671509 374.09336853 C339.60945012 374.08775744 335.99224636 374.07520303 332.375 374.0625 C329.92708423 374.05748643 327.47916748 374.05292328 325.03125 374.04882812 C319.02081234 374.0377844 313.01041054 374.02103544 307 374 C307.02094727 374.98282959 307.04189453 375.96565918 307.06347656 376.97827148 C307.13647313 380.66269062 307.18201358 384.34704731 307.21972656 388.03198242 C307.23970745 389.61965726 307.26690203 391.20725979 307.30175781 392.79467773 C307.52640511 403.29693909 307.20349157 411.68004253 300.625 420.3125 C295.28736631 425.7772202 289.86924898 428.76894815 282.19775391 429.22705078 C280.79065037 429.22673831 279.38351852 429.21568934 277.9765625 429.1953125 C277.23038666 429.1924826 276.48421082 429.18965271 275.71542358 429.18673706 C273.35178012 429.17561687 270.98852732 429.15052821 268.625 429.125 C267.01432842 429.11495962 265.40365085 429.10583562 263.79296875 429.09765625 C259.86183056 429.0757044 255.93098133 429.04123185 252 429 C252.00666183 429.63004944 252.01332367 430.26009888 252.02018738 430.90924072 C252.08652244 437.46271668 252.13179307 444.01609737 252.16479492 450.56982422 C252.1798877 453.01615268 252.20036402 455.46245407 252.22631836 457.90869141 C252.26267918 461.42357057 252.27972161 464.93809218 252.29296875 468.453125 C252.30845261 469.5480426 252.32393646 470.64296021 252.33988953 471.77105713 C252.34011612 472.79181335 252.34034271 473.81256958 252.34057617 474.86425781 C252.35056892 476.20994843 252.35056892 476.20994843 252.36076355 477.58282471 C251.92261363 480.51850143 251.03660157 481.86612651 249 484 C245.34121638 485.19308162 243.70002308 485.32667744 240.1875 483.6875 C238 482 238 482 237 480 C236.9097165 478.36582405 236.88244342 476.72797163 236.88647461 475.09130859 C236.88655014 474.07040131 236.88662567 473.04949402 236.88670349 471.99765015 C236.89186478 470.89240997 236.89702606 469.7871698 236.90234375 468.6484375 C236.90446617 466.95468491 236.90446617 466.95468491 236.90663147 465.22671509 C236.91224256 461.60945012 236.92479697 457.99224636 236.9375 454.375 C236.94251357 451.92708423 236.94707672 449.47916748 236.95117188 447.03125 C236.96136601 441.0207906 236.98093933 435.01046407 237 429 C225.45 429 213.9 429 202 429 C202.03480469 432.71894531 202.06960938 436.43789063 202.10546875 440.26953125 C202.12885195 443.86368034 202.14707563 447.45782102 202.16479492 451.05200195 C202.17989944 453.55366802 202.20038429 456.05530753 202.22631836 458.55688477 C202.26262775 462.14866684 202.27970975 465.74009941 202.29296875 469.33203125 C202.30845261 470.45398392 202.32393646 471.57593658 202.33988953 472.73188782 C202.34011612 473.77274033 202.34034271 474.81359283 202.34057617 475.88598633 C202.35056892 477.2616552 202.35056892 477.2616552 202.36076355 478.66511536 C201.92696441 481.47269097 201.2540267 482.32135828 199 484 C195.37704882 485.10263732 193.67830486 485.30146883 190.1875 483.75 C188 482 188 482 187 479 C186.91261102 477.3584155 186.88233379 475.71348378 186.88647461 474.06958008 C186.88655014 473.06876907 186.88662567 472.06795807 186.88670349 471.03681946 C186.89186478 469.95861435 186.89702606 468.88040924 186.90234375 467.76953125 C186.90446617 466.11119514 186.90446617 466.11119514 186.90663147 464.4193573 C186.91223486 460.88371083 186.92478796 457.34812738 186.9375 453.8125 C186.94251456 451.41731862 186.94707754 449.02213625 186.95117188 446.62695312 C186.96135506 440.75125819 186.98092993 434.87569975 187 429 C175.45 429 163.9 429 152 429 C152.05800781 432.70734375 152.11601562 436.4146875 152.17578125 440.234375 C152.21476617 443.82191834 152.24513134 447.40943815 152.2746582 450.99707031 C152.29981494 453.49196928 152.33394403 455.98679446 152.37719727 458.48144531 C152.43779434 462.06594028 152.46619892 465.64946163 152.48828125 469.234375 C152.51408768 470.35116638 152.5398941 471.46795776 152.56648254 472.61859131 C152.5692815 480.33221762 152.5692815 480.33221762 149.66479492 483.73925781 C146.24495444 485.3572199 144.56941885 485.16394093 141 484 C138.47262996 482.08268479 138.0283153 481.08494591 137 478 C136.91277548 476.38904142 136.88232728 474.77468984 136.88647461 473.16137695 C136.88655014 472.1805867 136.88662567 471.19979645 136.88670349 470.18928528 C136.89186478 469.13295395 136.89702606 468.07662262 136.90234375 466.98828125 C136.90446617 465.36323921 136.90446617 465.36323921 136.90663147 463.70536804 C136.91223441 460.24105075 136.92478742 456.7767978 136.9375 453.3125 C136.94251462 450.96549572 136.94707759 448.61849044 136.95117188 446.27148438 C136.96135441 440.51427811 136.98092937 434.75721118 137 429 C125.78 429 114.56 429 103 429 C103.02320313 432.47917969 103.04640625 435.95835937 103.0703125 439.54296875 C103.08591341 442.91544225 103.09805567 446.28791173 103.10986328 449.66040039 C103.11991609 452.00286663 103.1335603 454.34532035 103.15087891 456.68774414 C103.17515852 460.05618383 103.18649042 463.42445747 103.1953125 466.79296875 C103.20563507 467.83897751 103.21595764 468.88498627 103.22659302 469.96269226 C103.22674408 470.94333145 103.22689514 471.92397064 103.22705078 472.93432617 C103.231492 473.79370285 103.23593323 474.65307953 103.24050903 475.53849792 C102.96582261 478.34979024 102.22494483 480.4617902 101 483 C98.46163528 484.99442942 97.18336285 485.0112263 93.9375 484.8125 C90.83042386 483.95309596 89.90131593 483.51413013 88 481 C87.63923645 478.66511536 87.63923645 478.66511536 87.65942383 475.88598633 C87.65965042 474.84513382 87.65987701 473.80428131 87.66011047 472.73188782 C87.67559433 471.60993515 87.69107819 470.48798248 87.70703125 469.33203125 C87.71127609 468.18208176 87.71552094 467.03213226 87.71989441 465.84733582 C87.73670811 462.16882059 87.77436623 458.49085008 87.8125 454.8125 C87.82754331 452.32097144 87.84123233 449.82943432 87.85351562 447.33789062 C87.88407049 441.22488093 87.94278947 435.11305131 88 429 C76.45 429 64.9 429 53 429 C53.03480469 432.55136719 53.06960937 436.10273438 53.10546875 439.76171875 C53.12886924 443.20368648 53.14708308 446.64564534 53.16479492 450.08764648 C53.17987543 452.4786374 53.20034277 454.86960068 53.22631836 457.26049805 C53.26273306 460.69847435 53.27973399 464.13608469 53.29296875 467.57421875 C53.30845261 468.64210129 53.32393646 469.70998383 53.33988953 470.81022644 C53.3420343 480.28177198 53.3420343 480.28177198 50 484 C47.125 485 47.125 485 44 485 C41.67268444 483.86220128 39.83159286 482.83159286 38 481 C37.90659566 479.37325222 37.88254829 477.74245949 37.88647461 476.11303711 C37.88655014 475.07203354 37.88662567 474.03102997 37.88670349 472.95848083 C37.89186478 471.8262056 37.89702606 470.69393036 37.90234375 469.52734375 C37.90446617 467.79817467 37.90446617 467.79817467 37.90663147 466.03407288 C37.91224995 462.33518936 37.92480558 458.63636536 37.9375 454.9375 C37.94251262 452.43684983 37.94707594 449.93619871 37.95117188 447.43554688 C37.9613765 441.29032295 37.98094831 435.14522845 38 429 C26.45 429 14.9 429 3 429 C3.05220703 434.45273437 3.05220703 434.45273437 3.10546875 440.015625 C3.12886041 443.53368342 3.14707928 447.05173319 3.16479492 450.56982422 C3.1798877 453.01615268 3.20036402 455.46245407 3.22631836 457.90869141 C3.26267918 461.42357057 3.27972161 464.93809218 3.29296875 468.453125 C3.30845261 469.5480426 3.32393646 470.64296021 3.33988953 471.77105713 C3.34011612 472.79181335 3.34034271 473.81256958 3.34057617 474.86425781 C3.35056892 476.20994843 3.35056892 476.20994843 3.36076355 477.58282471 C2.92261363 480.51850143 2.03660157 481.86612651 0 484 C-3.65878362 485.19308162 -5.29997692 485.32667744 -8.8125 483.6875 C-11 482 -11 482 -12 480 C-12.0902835 478.36582405 -12.11755658 476.72797163 -12.11352539 475.09130859 C-12.11341209 473.55994766 -12.11341209 473.55994766 -12.11329651 471.99765015 C-12.10813522 470.89240997 -12.10297394 469.7871698 -12.09765625 468.6484375 C-12.0962413 467.5192691 -12.09482635 466.39010071 -12.09336853 465.22671509 C-12.08775744 461.60945012 -12.07520303 457.99224636 -12.0625 454.375 C-12.05748643 451.92708423 -12.05292328 449.47916748 -12.04882812 447.03125 C-12.0377844 441.02081234 -12.02103544 435.01041054 -12 429 C-12.98282959 429.02094727 -13.96565918 429.04189453 -14.97827148 429.06347656 C-18.66269062 429.13647313 -22.34704731 429.18201358 -26.03198242 429.21972656 C-27.61965726 429.23970745 -29.20725979 429.26690203 -30.79467773 429.30175781 C-41.29693909 429.52640511 -49.68004253 429.20349157 -58.3125 422.625 C-63.7772202 417.28736631 -66.76894815 411.86924898 -67.22705078 404.19775391 C-67.22673831 402.79065037 -67.21568934 401.38351852 -67.1953125 399.9765625 C-67.1924826 399.23038666 -67.18965271 398.48421082 -67.18673706 397.71542358 C-67.17561687 395.35178012 -67.15052821 392.98852732 -67.125 390.625 C-67.11495962 389.01432842 -67.10583562 387.40365085 -67.09765625 385.79296875 C-67.0757044 381.86183056 -67.04123185 377.93098133 -67 374 C-67.94507416 374.00999275 -67.94507416 374.00999275 -68.90924072 374.02018738 C-75.46271668 374.08652244 -82.01609737 374.13179307 -88.56982422 374.16479492 C-91.01615268 374.1798877 -93.46245407 374.20036402 -95.90869141 374.22631836 C-99.42357057 374.26267918 -102.93809218 374.27972161 -106.453125 374.29296875 C-107.5480426 374.30845261 -108.64296021 374.32393646 -109.77105713 374.33988953 C-110.79181335 374.34011612 -111.81256958 374.34034271 -112.86425781 374.34057617 C-114.20994843 374.35056892 -114.20994843 374.35056892 -115.58282471 374.36076355 C-118.51850143 373.92261363 -119.86612651 373.03660157 -122 371 C-123.19308162 367.34121638 -123.32667744 365.70002308 -121.6875 362.1875 C-120 360 -120 360 -118 359 C-116.36582405 358.9097165 -114.72797163 358.88244342 -113.09130859 358.88647461 C-112.07040131 358.88655014 -111.04949402 358.88662567 -109.99765015 358.88670349 C-108.33978989 358.89444542 -108.33978989 358.89444542 -106.6484375 358.90234375 C-104.95468491 358.90446617 -104.95468491 358.90446617 -103.22671509 358.90663147 C-99.60945012 358.91224256 -95.99224636 358.92479697 -92.375 358.9375 C-89.92708423 358.94251357 -87.47916748 358.94707672 -85.03125 358.95117188 C-79.0207906 358.96136601 -73.01046407 358.98093933 -67 359 C-67 347.45 -67 335.9 -67 324 C-70.70734375 324.05800781 -74.4146875 324.11601562 -78.234375 324.17578125 C-81.82191834 324.21476617 -85.40943815 324.24513134 -88.99707031 324.2746582 C-91.49196928 324.29981494 -93.98679446 324.33394403 -96.48144531 324.37719727 C-100.06594028 324.43779434 -103.64946163 324.46619892 -107.234375 324.48828125 C-108.90956207 324.52699089 -108.90956207 324.52699089 -110.61859131 324.56648254 C-118.32509351 324.56927892 -118.32509351 324.56927892 -121.73144531 321.69604492 C-123.48494219 317.96935785 -123.22751561 315.89916723 -122 312 C-117.35416124 307.75463291 -111.47559002 308.6214638 -105.57421875 308.70703125 C-104.47149124 308.71127609 -103.36876373 308.71552094 -102.23262024 308.71989441 C-98.71732977 308.73666095 -95.20261664 308.77431049 -91.6875 308.8125 C-89.30144058 308.82754941 -86.91537216 308.84123736 -84.52929688 308.85351562 C-78.68579759 308.88400345 -72.84354357 308.94273115 -67 309 C-67 297.45 -67 285.9 -67 274 C-70.70734375 274.05800781 -74.4146875 274.11601562 -78.234375 274.17578125 C-81.82191834 274.21476617 -85.40943815 274.24513134 -88.99707031 274.2746582 C-91.49196928 274.29981494 -93.98679446 274.33394403 -96.48144531 274.37719727 C-100.06594028 274.43779434 -103.64946163 274.46619892 -107.234375 274.48828125 C-108.90956207 274.52699089 -108.90956207 274.52699089 -110.61859131 274.56648254 C-118.33221762 274.5692815 -118.33221762 274.5692815 -121.73925781 271.66479492 C-123.3572199 268.24495444 -123.16394093 266.56941885 -122 263 C-120.31781905 260.74834247 -119.47348464 260.07315822 -116.66511536 259.63923645 C-115.74800278 259.64589828 -114.8308902 259.65256012 -113.88598633 259.65942383 C-112.32470757 259.65976372 -112.32470757 259.65976372 -110.73188782 259.66011047 C-109.04895882 259.68333626 -109.04895882 259.68333626 -107.33203125 259.70703125 C-105.60710701 259.71339851 -105.60710701 259.71339851 -103.84733582 259.71989441 C-100.16882059 259.73670811 -96.49085008 259.77436623 -92.8125 259.8125 C-90.32097144 259.82754331 -87.82943432 259.84123233 -85.33789062 259.85351562 C-79.22488093 259.88407049 -73.11305131 259.94278947 -67 260 C-67 248.12 -67 236.24 -67 224 C-70.71894531 224.03480469 -74.43789062 224.06960937 -78.26953125 224.10546875 C-81.86368034 224.12885195 -85.45782102 224.14707563 -89.05200195 224.16479492 C-91.55366802 224.17989944 -94.05530753 224.20038429 -96.55688477 224.22631836 C-100.14866684 224.26262775 -103.74009941 224.27970975 -107.33203125 224.29296875 C-108.45398392 224.30845261 -109.57593658 224.32393646 -110.73188782 224.33988953 C-112.29316658 224.34022942 -112.29316658 224.34022942 -113.88598633 224.34057617 C-114.80309891 224.34723801 -115.72021149 224.35389984 -116.66511536 224.36076355 C-119.47348464 223.92684178 -120.31781905 223.25165753 -122 221 C-123.16394093 217.43058115 -123.3572199 215.75504556 -121.73925781 212.33520508 C-117.35635675 208.59880145 -112.80445067 209.38300738 -107.234375 209.51171875 C-106.08584045 209.51879349 -104.93730591 209.52586823 -103.75396729 209.53315735 C-100.08531589 209.56114768 -96.41819017 209.62389948 -92.75 209.6875 C-90.26304287 209.71257666 -87.77606182 209.73539092 -85.2890625 209.75585938 C-79.19164763 209.80673901 -73.09753145 209.90459356 -67 210 C-67 198.45 -67 186.9 -67 175 C-70.55136719 175.03480469 -74.10273437 175.06960937 -77.76171875 175.10546875 C-81.20368648 175.12886924 -84.64564534 175.14708308 -88.08764648 175.16479492 C-90.4786374 175.17987543 -92.86960068 175.20034277 -95.26049805 175.22631836 C-98.69847435 175.26273306 -102.13608469 175.27973399 -105.57421875 175.29296875 C-106.64210129 175.30845261 -107.70998383 175.32393646 -108.81022644 175.33988953 C-118.34269164 175.34204809 -118.34269164 175.34204809 -122 172 C-123.22751561 168.10083277 -123.48494219 166.03064215 -121.73144531 162.30395508 C-117.34816134 158.60668561 -112.78213243 159.3835231 -107.234375 159.51171875 C-106.08584045 159.51879349 -104.93730591 159.52586823 -103.75396729 159.53315735 C-100.08531589 159.56114768 -96.41819017 159.62389948 -92.75 159.6875 C-90.26304287 159.71257666 -87.77606182 159.73539092 -85.2890625 159.75585938 C-79.19164763 159.80673901 -73.09753145 159.90459356 -67 160 C-67 148.45 -67 136.9 -67 125 C-70.63515625 125.03480469 -74.2703125 125.06960937 -78.015625 125.10546875 C-81.53368342 125.12886041 -85.05173319 125.14707928 -88.56982422 125.16479492 C-91.01615268 125.1798877 -93.46245407 125.20036402 -95.90869141 125.22631836 C-99.42357057 125.26267918 -102.93809218 125.27972161 -106.453125 125.29296875 C-107.5480426 125.30845261 -108.64296021 125.32393646 -109.77105713 125.33988953 C-110.79181335 125.34011612 -111.81256958 125.34034271 -112.86425781 125.34057617 C-114.20994843 125.35056892 -114.20994843 125.35056892 -115.58282471 125.36076355 C-118.51850143 124.92261363 -119.86612651 124.03660157 -122 122 C-123.19308162 118.34121638 -123.32667744 116.70002308 -121.6875 113.1875 C-120 111 -120 111 -118 110 C-116.36582405 109.9097165 -114.72797163 109.88244342 -113.09130859 109.88647461 C-112.07040131 109.88655014 -111.04949402 109.88662567 -109.99765015 109.88670349 C-108.33978989 109.89444542 -108.33978989 109.89444542 -106.6484375 109.90234375 C-105.5192691 109.9037587 -104.39010071 109.90517365 -103.22671509 109.90663147 C-99.60945012 109.91224256 -95.99224636 109.92479697 -92.375 109.9375 C-89.92708423 109.94251357 -87.47916748 109.94707672 -85.03125 109.95117188 C-79.02081234 109.9622156 -73.01041054 109.97896456 -67 110 C-67.02094727 109.01717041 -67.04189453 108.03434082 -67.06347656 107.02172852 C-67.13647313 103.33730938 -67.18201358 99.65295269 -67.21972656 95.96801758 C-67.23970745 94.38034274 -67.26690203 92.79274021 -67.30175781 91.20532227 C-67.52640511 80.70306091 -67.20349157 72.31995747 -60.625 63.6875 C-55.28736631 58.2227798 -49.86924898 55.23105185 -42.19775391 54.77294922 C-40.79065037 54.77326169 -39.38351852 54.78431066 -37.9765625 54.8046875 C-37.23038666 54.8075174 -36.48421082 54.81034729 -35.71542358 54.81326294 C-33.35178012 54.82438313 -30.98852732 54.84947179 -28.625 54.875 C-27.01432842 54.88504038 -25.40365085 54.89416438 -23.79296875 54.90234375 C-19.86183056 54.9242956 -15.93098133 54.95876815 -12 55 C-12.00999275 54.05492584 -12.00999275 54.05492584 -12.02018738 53.09075928 C-12.08652244 46.53728332 -12.13179307 39.98390263 -12.16479492 33.43017578 C-12.1798877 30.98384732 -12.20036402 28.53754593 -12.22631836 26.09130859 C-12.26267918 22.57642943 -12.27972161 19.06190782 -12.29296875 15.546875 C-12.30845261 14.4519574 -12.32393646 13.35703979 -12.33988953 12.22894287 C-12.34011612 11.20818665 -12.34034271 10.18743042 -12.34057617 9.13574219 C-12.35056892 7.79005157 -12.35056892 7.79005157 -12.36076355 6.41717529 C-11.92212061 3.47819523 -11.0419285 2.13421049 -9 0 C-5.4314543 -1.18951523 -3.60804584 -0.97717908 0 0 Z M-49.38988113 73.79707336 C-53.41398461 79.00884615 -52.82946972 84.93109176 -52.76190186 91.24682617 C-52.76882034 92.60082856 -52.77835309 93.95481968 -52.79026532 95.30878735 C-52.81527395 99.01948206 -52.80295178 102.72924895 -52.78434801 106.43994665 C-52.7707622 110.44551164 -52.7917317 114.45091802 -52.80822754 118.45645142 C-52.83490189 126.2992997 -52.8291472 134.14180339 -52.81175169 141.98466516 C-52.79819915 148.35889529 -52.79636463 154.73302888 -52.80289459 161.10726929 C-52.80381399 162.01461828 -52.80473339 162.92196728 -52.80568065 163.8568117 C-52.80759901 165.70009687 -52.80954429 167.54338202 -52.8115162 169.38666713 C-52.82862386 186.66958673 -52.80895606 203.95231535 -52.776714 221.23520362 C-52.74990752 236.06347357 -52.75456372 250.8914617 -52.78222656 265.71972656 C-52.81433857 282.94095277 -52.82697592 300.16201162 -52.80855298 317.38326359 C-52.80664169 319.2197526 -52.80475547 321.05624165 -52.80289459 322.89273071 C-52.80196894 323.79630898 -52.80104329 324.69988725 -52.80008958 325.63084668 C-52.79490989 331.99713325 -52.80365149 338.36331362 -52.81777191 344.72958374 C-52.83460289 352.48844921 -52.83004032 360.24695049 -52.79808745 368.00577426 C-52.78232242 371.96426482 -52.77613629 375.92214829 -52.79598236 379.88063431 C-52.81388094 383.50550787 -52.80400783 387.12921257 -52.77211705 390.75398028 C-52.76225489 392.68408278 -52.78181246 394.61426662 -52.80246043 396.54428387 C-52.71037182 403.86831864 -52.71037182 403.86831864 -49.38988113 410.20292664 C-42.95182998 416.27860859 -34.41982581 415.28446832 -26.1328125 415.25396729 C-24.83320084 415.25708727 -23.53358917 415.26020725 -22.19459534 415.26342177 C-18.59818928 415.27175516 -15.00188964 415.26765115 -11.40548325 415.26144934 C-7.52267493 415.25691989 -3.63988477 415.26391106 0.24291992 415.26940918 C7.84503581 415.27829955 15.44711219 415.27638275 23.04922962 415.2705839 C29.22797278 415.26606602 35.40670488 415.26545505 41.58544922 415.26763153 C42.9048423 415.26809123 42.9048423 415.26809123 44.25088978 415.26856022 C46.03780492 415.26919967 47.82472007 415.2698481 49.61163521 415.2705054 C66.36513796 415.27620765 83.11861883 415.26965244 99.872118 415.25890467 C114.24548546 415.24996925 128.61882062 415.25152132 142.9921875 415.26074219 C159.68599479 415.27144667 176.3797829 415.27565834 193.07359314 415.26951766 C194.85391235 415.26888057 196.63423156 415.26825182 198.41455078 415.26763153 C199.29048795 415.26732298 200.16642511 415.26701443 201.06890583 415.26669653 C207.23978956 415.26497012 213.41066112 415.26788352 219.58154297 415.27259064 C227.10240294 415.27820144 234.62322116 415.27667882 242.14407635 415.26602915 C245.98087041 415.26077513 249.81759489 415.25871111 253.65438843 415.26532745 C257.81392364 415.27239184 261.97328332 415.26395308 266.1328125 415.25396729 C267.34496933 415.25842873 268.55712616 415.26289017 269.80601501 415.26748681 C280.44689911 415.36598313 280.44689911 415.36598313 289.38988113 410.20292664 C293.41398461 404.99115385 292.82946972 399.06890824 292.76190186 392.75317383 C292.76882034 391.39917144 292.77835309 390.04518032 292.79026532 388.69121265 C292.81527395 384.98051794 292.80295178 381.27075105 292.78434801 377.56005335 C292.7707622 373.55448836 292.7917317 369.54908198 292.80822754 365.54354858 C292.83490189 357.7007003 292.8291472 349.85819661 292.81175169 342.01533484 C292.79819915 335.64110471 292.79636463 329.26697112 292.80289459 322.89273071 C292.80427369 321.53170722 292.80427369 321.53170722 292.80568065 320.1431883 C292.80759901 318.29990313 292.80954429 316.45661798 292.8115162 314.61333287 C292.82862386 297.33041327 292.80895606 280.04768465 292.776714 262.76479638 C292.74990752 247.93652643 292.75456372 233.1085383 292.78222656 218.28027344 C292.81433857 201.05904723 292.82697592 183.83798838 292.80855298 166.61673641 C292.80664169 164.7802474 292.80475547 162.94375835 292.80289459 161.10726929 C292.80196894 160.20369102 292.80104329 159.30011275 292.80008958 158.36915332 C292.79490989 152.00286675 292.80365149 145.63668638 292.81777191 139.27041626 C292.83460289 131.51155079 292.83004032 123.75304951 292.79808745 115.99422574 C292.78232242 112.03573518 292.77613629 108.07785171 292.79598236 104.11936569 C292.81388094 100.49449213 292.80400783 96.87078743 292.77211705 93.24601972 C292.76225489 91.31591722 292.78181246 89.38573338 292.80246043 87.45571613 C292.71037182 80.13168136 292.71037182 80.13168136 289.38988113 73.79707336 C282.95182998 67.72139141 274.41982581 68.71553168 266.1328125 68.74603271 C264.83320084 68.74291273 263.53358917 68.73979275 262.19459534 68.73657823 C258.59818928 68.72824484 255.00188964 68.73234885 251.40548325 68.73855066 C247.52267493 68.74308011 243.63988477 68.73608894 239.75708008 68.73059082 C232.15496419 68.72170045 224.55288781 68.72361725 216.95077038 68.7294161 C210.77202722 68.73393398 204.59329512 68.73454495 198.41455078 68.73236847 C197.5349554 68.732062 196.65536001 68.73175554 195.74911022 68.73143978 C193.96219508 68.73080033 192.17527993 68.7301519 190.38836479 68.7294946 C173.63486204 68.72379235 156.88138117 68.73034756 140.127882 68.74109533 C125.75451454 68.75003075 111.38117938 68.74847868 97.0078125 68.73925781 C80.31400521 68.72855333 63.6202171 68.72434166 46.92640686 68.73048234 C45.14608765 68.73111943 43.36576844 68.73174818 41.58544922 68.73236847 C40.70951205 68.73267702 39.83357489 68.73298557 38.93109417 68.73330347 C32.76021044 68.73502988 26.58933888 68.73211648 20.41845703 68.72740936 C12.89759706 68.72179856 5.37677884 68.72332118 -2.14407635 68.73397085 C-5.98087041 68.73922487 -9.81759489 68.74128889 -13.65438843 68.73467255 C-17.81392364 68.72760816 -21.97328332 68.73604692 -26.1328125 68.74603271 C-27.34496933 68.74157127 -28.55712616 68.73710983 -29.80601501 68.73251319 C-40.44689911 68.63401687 -40.44689911 68.63401687 -49.38988113 73.79707336 Z " fill="#000000" transform="translate(136,14)"/>
<path d="M0 0 C0.94278976 -0.00384115 1.88557952 -0.00768229 2.85693866 -0.01163983 C3.89466346 -0.01077335 4.93238825 -0.00990687 6.00155926 -0.00901413 C7.10244827 -0.01198525 8.20333729 -0.01495637 9.33758658 -0.01801753 C13.04554661 -0.02672493 16.75347444 -0.0282145 20.4614439 -0.02970505 C23.11221756 -0.03433175 25.76298826 -0.03933545 28.41376019 -0.04475021 C35.62862965 -0.05833636 42.84349356 -0.06435866 50.05837369 -0.06876087 C54.56260658 -0.07152276 59.06683732 -0.07576001 63.57106876 -0.08026505 C76.03982216 -0.09245796 88.50857384 -0.10275731 100.97733307 -0.10614014 C101.77547337 -0.1063597 102.57361367 -0.10657927 103.39594005 -0.10680549 C104.19599895 -0.10702377 104.99605785 -0.10724204 105.82036096 -0.10746694 C107.44160736 -0.1079104 109.06285375 -0.10835697 110.68410015 -0.10880661 C111.89039358 -0.10913875 111.89039358 -0.10913875 113.12105658 -0.10947761 C126.15335563 -0.11342604 139.18559878 -0.13088133 152.21787623 -0.15416613 C165.59508921 -0.17787449 178.97227413 -0.19034175 192.34950846 -0.19150805 C199.86148414 -0.19242509 207.37338698 -0.19818467 214.8853426 -0.21632767 C221.28168894 -0.23172169 227.67793994 -0.23685327 234.07430128 -0.22858956 C237.33785249 -0.22468056 240.6011713 -0.227254 243.86470699 -0.23964691 C247.40308529 -0.25229727 250.94096806 -0.24652684 254.47934246 -0.23606491 C255.51037509 -0.24412132 256.54140772 -0.25217772 257.60368377 -0.26047826 C262.96532507 -0.22331026 266.82143247 0.07109168 271.43092632 3.13142776 C275.18548977 7.19041527 276.55312135 10.2160214 276.5651474 15.69770813 C276.56960524 16.63988119 276.57406309 17.58205425 276.57865602 18.55277801 C276.57837947 20.10834202 276.57837947 20.10834202 276.57809734 21.69533157 C276.58177403 22.79551502 276.58545072 23.89569848 276.58923882 25.02922082 C276.60029745 28.73484394 276.60412319 32.44043903 276.60792828 36.1460762 C276.61419122 38.79522749 276.6208249 41.44437575 276.627841 44.09352493 C276.64760299 52.05677724 276.65767102 60.02003082 276.66656879 67.98330152 C276.67095189 71.73307908 276.67631862 75.48285524 276.68155766 79.23263168 C276.69856924 91.69709225 276.71306373 104.16155194 276.7203064 116.62602234 C276.7222163 119.86057155 276.72413663 123.09512076 276.72609234 126.32966995 C276.72657608 127.13360326 276.72705982 127.93753657 276.72755822 128.7658315 C276.73585974 141.79100659 276.76119901 154.81608988 276.79367302 167.84122488 C276.82673907 181.21279224 276.84475472 194.58431294 276.84795064 207.95592141 C276.8501161 215.46404351 276.85886999 222.97203172 276.88441181 230.48011398 C276.90611261 236.87388769 276.91417234 243.26749498 276.90444503 249.66130134 C276.89989849 252.92301773 276.90398619 256.18431881 276.92120647 259.44600296 C276.93884257 262.98415628 276.93185901 266.52143615 276.91867352 270.05958939 C276.93512738 271.60176907 276.93512738 271.60176907 276.95191365 273.1751039 C276.8961977 279.3603861 276.30589276 283.20844949 272.43092632 288.13142776 C266.65350246 292.67406125 261.55798877 292.70177246 254.38600445 292.63936234 C253.2824033 292.6456023 252.17880215 292.65184226 251.04175854 292.65827131 C247.34834635 292.67421026 243.65559327 292.66159281 239.96217632 292.64900589 C237.31241718 292.6544266 234.66270326 292.66140438 232.01295757 292.67024612 C225.56584107 292.68801566 219.11891102 292.68419843 212.67178726 292.67259556 C207.43124711 292.66355531 202.19075915 292.66233979 196.95021343 292.66669083 C196.20383539 292.66730376 195.45745734 292.66791669 194.68846178 292.6685482 C193.17212262 292.66982712 191.65578348 292.67112397 190.13944435 292.67243856 C175.92679595 292.68383977 161.71425081 292.67073789 147.50161934 292.6492371 C135.31133663 292.63136651 123.12120629 292.63447074 110.93092632 292.65291214 C96.76850915 292.674327 82.60618244 292.68274117 68.44375134 292.67046309 C66.93304731 292.66918891 65.42234327 292.66793143 63.91163921 292.66669083 C63.16837934 292.66607372 62.42511947 292.66545662 61.65933657 292.66482082 C56.42619527 292.66136976 51.19311145 292.66719099 45.95997906 292.67660904 C39.58091291 292.68783726 33.2020436 292.68477183 26.82299995 292.66348606 C23.56937701 292.65298645 20.31614916 292.65099451 17.06251812 292.66208267 C13.53330029 292.67300171 10.00500701 292.65931684 6.4758482 292.63936234 C5.45045689 292.64828522 4.42506557 292.65720811 3.3686018 292.66640139 C-2.81455989 292.59852015 -6.53990806 291.81239361 -11.56907368 288.13142776 C-15.639913 282.76178897 -16.16537769 278.48703519 -16.10032368 271.87361526 C-16.10415058 271.00753647 -16.10797749 270.14145767 -16.11192036 269.24913406 C-16.11462867 267.42879948 -16.10734356 265.60842525 -16.09055805 263.78816605 C-16.06907944 261.00717343 -16.09042219 258.2287485 -16.11594868 255.44783401 C-16.11330623 253.67308876 -16.10818296 251.89834509 -16.10032368 250.12361526 C-16.1084206 249.2964299 -16.11651752 248.46924454 -16.12485981 247.61699295 C-16.06067617 243.65734438 -15.83392762 241.57325489 -13.75462055 238.1045723 C-11.56907368 236.13142776 -11.56907368 236.13142776 -8.06907368 235.56892776 C-4.56907368 236.13142776 -4.56907368 236.13142776 -0.56907368 240.13142776 C-0.56907368 252.34142776 -0.56907368 264.55142776 -0.56907368 277.13142776 C23.85092632 277.13142776 48.27092632 277.13142776 73.43092632 277.13142776 C76.15246875 247.25539412 76.15246875 247.25539412 65.43092632 238.13142776 C62.68938754 237.94528097 62.68938754 237.94528097 60.43092632 239.13142776 C53.51439713 241.43693749 45.63536005 241.13947678 38.99342632 238.13142776 C32.64343338 234.49696026 28.69541746 229.03710571 26.43092632 222.13142776 C25.58037795 214.40726173 25.74539795 207.54159687 30.43092632 201.13142776 C35.26911367 195.5293161 40.47326965 191.6076751 47.91139507 190.89314651 C55.83209 190.6759846 61.71535004 191.75537828 67.69655132 197.19002151 C71.52226255 201.27032143 74.13125489 204.59756362 75.43092632 210.13142776 C75.29896546 212.53096104 75.10779907 214.92772006 74.86842632 217.31892776 C74.75951618 221.92038147 74.88243549 224.94114414 77.83717632 228.48299026 C80.51624336 231.25607521 83.46459807 233.6741418 86.43092632 236.13142776 C88.09700757 239.46359025 87.55110324 243.19616535 87.52858257 246.85799026 C87.52757549 247.62264603 87.52656841 248.38730179 87.52553082 249.17512894 C87.52029294 252.0355771 87.50633169 254.89600392 87.49342632 257.75642776 C87.47280132 264.15017776 87.45217632 270.54392776 87.43092632 277.13142776 C101.62092632 277.13142776 115.81092632 277.13142776 130.43092632 277.13142776 C132.29903529 260.31722684 132.29903529 260.31722684 126.07709026 245.27954483 C121.35086746 240.00077556 115.99069329 235.38398138 110.45631695 230.97127151 C108.43092632 229.13142776 108.43092632 229.13142776 107.43092632 226.13142776 C107.34776881 224.06643884 107.32356754 221.99884887 107.33327007 219.93220901 C107.33810406 218.11946487 107.33810406 218.11946487 107.3430357 216.27009964 C107.35560406 214.37614456 107.35560406 214.37614456 107.36842632 212.44392776 C107.37293804 211.16968948 107.37744976 209.8954512 107.3820982 208.58259964 C107.39389759 205.43216213 107.41036035 202.28181828 107.43092632 199.13142776 C106.48620464 198.83123734 105.54148296 198.53104691 104.56813335 198.2217598 C98.45778788 196.09811755 93.93645403 191.6694544 90.99342632 185.94392776 C87.50978846 178.27367579 87.61800818 171.04873779 90.52858257 163.22908401 C93.79813052 155.62844657 99.2243008 150.84523816 106.80592632 147.75642776 C116.88244166 146.01909753 124.51776556 147.45212774 133.24342632 152.88142776 C139.73177449 159.55515731 141.77046254 166.00515864 141.81593609 175.2229805 C141.65599671 182.42371075 139.59151798 187.75213445 134.68092632 193.00252151 C130.98900569 196.32047605 127.54186098 199.13142776 122.43092632 199.13142776 C121.38910817 206.80338088 120.82583144 214.73519322 123.43092632 222.13142776 C126.58285854 226.02207129 130.07615214 228.71020478 133.99342632 231.94392776 C144.43092632 243.13142776 144.43092632 243.13142776 144.43092632 277.13142776 C183.04092632 277.13142776 221.65092632 277.13142776 261.43092632 277.13142776 C261.43092632 257.00142776 261.43092632 236.87142776 261.43092632 216.13142776 C244.27092632 216.13142776 227.11092632 216.13142776 209.43092632 216.13142776 C209.10092632 217.78142776 208.77092632 219.43142776 208.43092632 221.13142776 C204.44596396 227.23015277 198.51865485 232.52423787 191.48952007 234.74470901 C182.33532109 236.46437827 174.86900722 234.63765977 167.24342632 229.50642776 C161.60996889 225.05954503 158.53809847 219.16588513 157.43092632 212.13142776 C156.8574838 203.52978988 158.50941066 197.05871771 164.05592632 190.31892776 C170.17003328 183.98329519 175.59754731 181.94903086 184.36842632 181.56892776 C191.93505934 181.81380262 197.724212 183.67182773 203.30592632 188.88142776 C206.61922335 192.5770283 209.43092632 196.02029708 209.43092632 201.13142776 C226.59092632 201.13142776 243.75092632 201.13142776 261.43092632 201.13142776 C261.43092632 175.39142776 261.43092632 149.65142776 261.43092632 123.13142776 C250.50998882 123.16236526 250.50998882 123.16236526 239.36842632 123.19392776 C237.08283794 123.18240677 234.79724957 123.17088577 232.44240093 123.15901566 C230.61432438 123.17963395 228.78627422 123.20281983 226.95827007 123.22908401 C226.02245098 123.21486404 225.08663189 123.20064407 224.12245464 123.18599319 C218.85559054 123.29826185 216.07951103 123.90226343 212.27296734 127.68782425 C211.29954232 128.81366201 210.34213975 129.95467077 209.43092632 131.13142776 C209.66166851 131.7090889 209.8924107 132.28675003 210.13014507 132.88191605 C212.82216952 139.813879 213.85957405 146.60076251 211.58717632 153.80720901 C208.37323024 160.96258223 203.60305664 165.9990056 196.61842632 169.56892776 C187.03688479 171.25978804 179.40521718 170.35008655 171.24342632 165.06892776 C166.52245525 160.71011338 163.86377829 155.23667016 162.98170757 148.90877151 C162.71586064 141.07087064 163.68199024 134.35362063 169.00905132 128.35408401 C173.6887182 124.04330979 178.65801371 121.03640584 185.19264507 121.26033401 C186.48815289 121.40341995 187.7836607 121.54650589 189.11842632 121.69392776 C193.98007533 122.00196457 197.24766991 121.70366134 201.06764507 118.50642776 C204.09477234 115.58036727 206.74601321 112.3691171 209.43092632 109.13142776 C211.8925365 107.90062268 213.49589626 108.01098799 216.24782085 108.01790237 C217.26271587 108.01802322 218.27761089 108.01814407 219.32326031 108.01826859 C220.92729717 108.02594254 220.92729717 108.02594254 222.56373882 108.03377151 C223.54463482 108.03477859 224.52553082 108.03578568 225.53615093 108.03682327 C229.20942124 108.04206554 232.88267493 108.05602675 236.55592632 108.06892776 C248.86905132 108.09986526 248.86905132 108.09986526 261.43092632 108.13142776 C261.43092632 91.30142776 261.43092632 74.47142776 261.43092632 57.13142776 C249.98405132 57.19330276 249.98405132 57.19330276 238.30592632 57.25642776 C235.90681988 57.25401077 233.50771343 57.25159378 231.03590679 57.24910355 C229.12327885 57.27263824 227.21067615 57.29836995 225.29811382 57.32674026 C223.82193584 57.31308426 223.82193584 57.31308426 222.31593609 57.29915237 C217.48815792 57.39827786 214.34620197 57.60113439 210.74782085 61.01375198 C208.14863183 63.84382643 208.14863183 63.84382643 208.49342632 66.81892776 C208.80280132 67.58205276 209.11217632 68.34517776 209.43092632 69.13142776 C211.61837592 75.69377657 211.74792272 84.36994745 208.74342632 90.69392776 C204.83726018 97.09949392 199.45076073 101.18826606 192.49342632 103.88142776 C184.84556281 104.80844152 178.02085434 104.11307392 171.44655132 99.84236526 C166.26673465 95.70293912 162.74109566 90.73171478 161.43092632 84.13142776 C160.68810365 75.73181752 161.88686963 69.09549644 167.11842632 62.38142776 C172.41438336 56.68209316 178.22338351 54.78367364 185.84108257 54.11189651 C188.43092632 54.13142776 188.43092632 54.13142776 191.84498882 54.98689651 C195.24652582 55.46008952 195.24652582 55.46008952 197.08204937 54.105793 C198.74770313 52.56670945 200.24933655 50.96232337 201.74342632 49.25642776 C208.25202173 42.19544234 208.25202173 42.19544234 211.64555645 42.01117325 C212.56488964 42.01339386 213.48422283 42.01561447 214.4314146 42.01790237 C215.99280666 42.01801567 215.99280666 42.01801567 217.585742 42.01813126 C218.71285595 42.02329254 219.8399699 42.02845383 221.00123882 42.03377151 C222.15260326 42.03518646 223.3039677 42.03660141 224.49022198 42.03805923 C228.17881618 42.04367061 231.86735037 42.05622507 235.55592632 42.06892776 C238.0520192 42.0739413 240.54811302 42.07850446 243.04420757 42.08259964 C249.17315572 42.09279416 255.30197359 42.11236744 261.43092632 42.13142776 C261.43092632 33.22142776 261.43092632 24.31142776 261.43092632 15.13142776 C174.97092632 15.13142776 88.51092632 15.13142776 -0.56907368 15.13142776 C-0.56907368 28.66142776 -0.56907368 42.19142776 -0.56907368 56.13142776 C24.51092632 56.13142776 49.59092632 56.13142776 75.43092632 56.13142776 C76.42092632 53.16142776 76.42092632 53.16142776 77.43092632 50.13142776 C80.75584972 43.72643967 85.74953415 40.05962413 92.33717632 37.34627151 C99.27447928 35.19968802 107.04239195 35.79921801 113.68092632 38.69392776 C119.40808071 41.93970725 124.72133473 47.72951566 126.98952007 53.96345901 C128.69531857 62.34149587 128.38624543 70.47268147 124.05592632 77.94002151 C119.56775642 83.99257756 114.34622447 88.12722707 106.88795757 89.65095901 C98.65964155 90.56251544 92.55019209 89.19106065 85.18092632 85.50642776 C80.69662912 81.63362563 77.30927061 76.76646063 75.43092632 71.13142776 C50.35092632 70.80142776 25.27092632 70.47142776 -0.56907368 70.13142776 C-0.56907368 85.97142776 -0.56907368 101.81142776 -0.56907368 118.13142776 C13.29092632 118.13142776 27.15092632 118.13142776 41.43092632 118.13142776 C41.76092632 116.48142776 42.09092632 114.83142776 42.43092632 113.13142776 C46.24717799 106.15917559 51.935816 101.62979787 59.43092632 99.13142776 C68.48371692 98.30737661 75.95461177 98.63099634 83.43092632 104.13142776 C89.5469022 109.45974008 92.71958018 115.35048797 93.70827007 123.38533401 C94.04074259 131.03220192 92.07395086 137.48848655 87.24342632 143.44392776 C81.68567239 149.35492877 74.86831768 152.19444008 66.80592632 152.44392776 C58.77267423 152.3139781 52.69617479 149.70935769 46.93092632 144.13142776 C43.6461955 140.6851528 41.43092632 138.00460815 41.43092632 133.13142776 C27.57092632 133.13142776 13.71092632 133.13142776 -0.56907368 133.13142776 C-0.45053801 143.15364571 -0.45053801 143.15364571 -0.29881001 153.17537308 C-0.29131733 154.42415237 -0.28382465 155.67293167 -0.27610493 156.95955276 C-0.25253925 158.87622757 -0.25253925 158.87622757 -0.22849751 160.83162308 C-0.5896044 164.33034764 -1.09994721 165.68639576 -3.56907368 168.13142776 C-6.9952208 169.52040633 -8.33440734 169.22168405 -11.81907368 167.88142776 C-14.56907368 166.13142776 -14.56907368 166.13142776 -15.56907368 163.13142776 C-15.66686423 161.10294507 -15.70407487 159.07136238 -15.70951557 157.04053116 C-15.71522572 155.76612671 -15.72093586 154.49172226 -15.72681904 153.17869949 C-15.72806439 151.76344691 -15.72918949 150.34819421 -15.73020649 148.93294144 C-15.73483506 147.44471488 -15.73985977 145.95648952 -15.74525166 144.46826553 C-15.7583741 140.42271524 -15.76482033 136.37718155 -15.76926231 132.3316133 C-15.77219335 129.80399397 -15.77629822 127.27637918 -15.78076649 124.74876213 C-15.79444113 116.84010056 -15.8041079 108.93144936 -15.80796838 101.02277678 C-15.81244892 91.89400984 -15.82999674 82.76539265 -15.85896897 73.63667125 C-15.88058716 66.58009668 -15.89067273 59.52356424 -15.8920095 52.46695691 C-15.89305745 48.25254359 -15.89896305 44.03827104 -15.91682911 39.82389259 C-15.93331216 35.85859127 -15.93546425 31.8935365 -15.9266901 27.92821312 C-15.92591984 26.47458485 -15.93026102 25.02094332 -15.94014835 23.56734848 C-15.95287522 21.57936447 -15.94519666 19.59128132 -15.93656635 17.6032753 C-15.93803291 16.49180224 -15.93949947 15.38032919 -15.94101048 14.23517513 C-15.35790064 9.36922576 -13.6490578 6.13041308 -10.06907368 2.81892776 C-6.62124579 0.49164394 -4.06040131 0.00620404 0 0 Z M92.43092632 55.13142776 C90.26762573 57.87160852 89.50740184 59.61794927 88.99342632 63.06892776 C89.5628703 67.05503558 90.83938681 69.0624994 93.43092632 72.13142776 C96.87498253 74.50399982 98.80197206 75.13142776 102.99342632 75.13142776 C107.19350698 73.90958612 108.79041128 72.60181897 111.43092632 69.13142776 C113.34410037 64.82678616 113.66877011 62.92424038 112.30592632 58.38142776 C110.07909355 54.45608913 110.07909355 54.45608913 106.43092632 52.13142776 C100.2473047 50.63539027 97.41004384 50.7312774 92.43092632 55.13142776 Z M179.43092632 72.13142776 C177.11255174 74.44980234 176.49568968 75.75903845 175.93092632 79.00642776 C176.62648523 83.35367092 178.20463038 85.1797102 181.43092632 88.13142776 C185.30762226 89.30828189 187.39529058 89.53155976 191.18092632 88.06892776 C194.05490549 85.59411237 195.24907552 83.7465008 196.43092632 80.13142776 C195.87382778 75.5154684 195.12144058 73.71686377 191.55592632 70.69392776 C186.5240887 68.17800895 183.80277351 68.99266568 179.43092632 72.13142776 Z M56.43092632 119.13142776 C54.47661287 123.35274483 54.20952698 125.31501768 55.43092632 129.81892776 C57.7372863 133.63883647 59.41765909 135.20197236 63.43092632 137.13142776 C66.97453162 137.77571964 69.17689805 137.79209872 72.39577007 136.09627151 C76.01874237 133.43646159 77.86785834 131.1120912 78.61842632 126.63142776 C78.79417071 122.10027894 77.44362914 119.56256153 74.43092632 116.13142776 C67.8144864 111.72046782 61.43713414 113.39260418 56.43092632 119.13142776 Z M178.43092632 141.13142776 C177.31502697 144.10715938 177.3047712 145.61419177 178.05592632 148.69392776 C179.81001058 151.80344076 181.3625216 153.29038493 184.43092632 155.13142776 C188.71662432 155.74367034 190.65727032 155.63598603 194.30592632 153.25642776 C197.03137523 150.53097885 197.37762501 149.69642168 197.74342632 145.81892776 C197.38216691 141.55606666 196.41100578 140.11150722 193.43092632 137.13142776 C187.2254032 134.0286662 182.31454726 135.83558104 178.43092632 141.13142776 Z M105.82545757 166.22127151 C103.33680383 169.63009975 102.90559299 172.99535262 103.43092632 177.13142776 C105.38927867 180.9781913 106.84541894 182.74108951 110.43092632 185.13142776 C114.16569308 185.8072427 117.84857021 185.93929734 121.28248882 184.18611526 C124.51711098 181.65259348 126.55148795 179.13775815 127.43092632 175.13142776 C127.22758582 170.25125567 125.81715049 167.61440119 122.43092632 164.13142776 C116.63533651 159.93462135 110.64350363 161.62074446 105.82545757 166.22127151 Z M176.43092632 199.13142776 C173.90023613 201.78865246 172.55972827 203.64100521 172.23952007 207.34627151 C172.46111575 211.38199893 173.16636859 213.73459116 175.43092632 217.13142776 C179.39736638 219.77572113 182.68197239 220.55020677 187.43092632 220.13142776 C191.29231841 218.34374624 192.99960405 216.77145437 195.36842632 213.25642776 C196.63210295 209.53973181 196.67067147 207.85066321 195.43092632 204.13142776 C192.95754685 200.34861211 191.16998386 198.47358403 187.05592632 196.56892776 C182.47140132 196.01562302 180.36976129 196.75326326 176.43092632 199.13142776 Z M42.43092632 210.13142776 C40.85636893 213.28054255 41.08293514 215.65151592 41.43092632 219.13142776 C43.2576157 222.70679933 43.2576157 222.70679933 46.43092632 225.13142776 C49.25701817 225.87783509 51.5963291 225.81860285 54.43092632 225.13142776 C57.24096093 223.33778866 58.940331 222.11261841 60.43092632 219.13142776 C60.82540181 214.94998765 60.88127818 212.82196729 58.55592632 209.25642776 C55.83047741 206.53097885 54.99592023 206.18472908 51.11842632 205.81892776 C46.85556522 206.18018718 45.41100578 207.15134831 42.43092632 210.13142776 Z " fill="#000000" transform="translate(125.56907367706299,109.86857223510742)"/>
<path d="M0 0 C2.07318725 1.81952669 2.89882464 3.31143175 3.30029297 6.04370117 C3.4409317 8.5363038 3.45820883 11.00364502 3.4375 13.5 C3.45748047 14.35464844 3.47746094 15.20929688 3.49804688 16.08984375 C3.49320098 22.30227506 3.49320098 22.30227506 1.19140625 25.55859375 C-2.0625163 27.69887436 -4.19981631 27.61074381 -8 27 C-11.17909319 24.14391628 -12.25304574 21.88144554 -12.49609375 17.71484375 C-12.49741319 16.12227661 -12.47733386 14.52956944 -12.4375 12.9375 C-12.44458984 12.13505859 -12.45167969 11.33261719 -12.45898438 10.50585938 C-12.4212156 7.00498441 -12.33411343 4.62244456 -10.66015625 1.50390625 C-7.23619807 -1.59779704 -4.21466337 -1.14147133 0 0 Z " fill="#000000" transform="translate(122,299)"/>
</svg>
