<?xml version="1.0" encoding="UTF-8"?>
<svg version="1.1" xmlns="http://www.w3.org/2000/svg" width="512" height="512">
<path d="M0 0 C7.70186135 -0.18117928 15.40292251 -0.3277549 23.10640049 -0.41449738 C26.68412888 -0.45614449 30.26031659 -0.51256595 33.8371582 -0.60351562 C37.29323741 -0.69083846 40.74784122 -0.73835288 44.20493889 -0.75901794 C46.15678018 -0.78086247 48.10803238 -0.84325593 50.05897522 -0.90637207 C58.70801373 -0.91072461 58.70801373 -0.91072461 62.16960144 1.52935791 C64.00275936 3.58323521 65.48727112 5.70191519 67 8 C68.15387436 9.38145377 69.31437182 10.75740066 70.48120117 12.12792969 C81.54169098 26.49562257 81.75329903 39.63156724 81.3125 57.25 C81.29546567 59.85673867 81.28435892 62.46352309 81.27929688 65.0703125 C81.25437265 71.38236565 81.15689626 77.68991766 81 84 C81.60473145 83.53625977 82.20946289 83.07251953 82.83251953 82.59472656 C85.59520461 80.47788458 88.36007925 78.36392089 91.125 76.25 C92.07632813 75.52039063 93.02765625 74.79078125 94.0078125 74.0390625 C96.66158333 72.01187645 99.32524495 69.99939807 102 68 C102.6197168 67.53529297 103.23943359 67.07058594 103.87792969 66.59179688 C106.97935943 64.37844173 108.00127623 64 112 64 C111.9685791 63.04746338 111.9685791 63.04746338 111.93652344 62.07568359 C111.85295419 59.17561924 111.80121226 56.27580884 111.75 53.375 C111.71648437 52.37597656 111.68296875 51.37695312 111.6484375 50.34765625 C111.56951154 44.38874637 111.75448969 40.56884388 116 36 C120.27170192 32.69214974 123.01209141 31.49981938 128.40625 31.49663544 C129.68245209 31.48620445 130.95865417 31.47577346 132.27352905 31.46502638 C133.68235499 31.47367385 135.09117865 31.48270044 136.5 31.49206543 C138.00233566 31.48745547 139.50466681 31.48110192 141.00698853 31.47315645 C145.13214446 31.45645281 149.25693041 31.46471408 153.38208771 31.47710133 C157.83206188 31.48614529 162.28197209 31.47218534 166.73193359 31.46118164 C175.44815467 31.44338484 184.16423806 31.44724157 192.88046455 31.4588322 C199.96361548 31.46786168 207.04672779 31.46909263 214.12988281 31.46473694 C215.13756903 31.46412401 216.14525524 31.46351107 217.1834774 31.46287957 C219.23050182 31.46160068 221.27752623 31.46030383 223.32455063 31.4589892 C242.52450091 31.44758 261.72437483 31.46070245 280.92431259 31.48219067 C297.40270497 31.50006195 313.88098465 31.49695794 330.359375 31.47851562 C349.49010067 31.45711492 368.62075939 31.44867867 387.75149536 31.46096468 C389.79103596 31.46223889 391.83057657 31.46349637 393.87011719 31.46473694 C395.37540009 31.46566259 395.37540009 31.46566259 396.91109276 31.46660694 C403.98664327 31.47006224 411.06215137 31.46422762 418.13769531 31.45481873 C426.75914265 31.44360626 435.3804443 31.44662295 444.00187492 31.4679417 C448.40162043 31.47846226 452.80112293 31.48255688 457.2008667 31.46934509 C461.22763187 31.45743608 465.2539285 31.46395881 469.28065109 31.4852553 C470.73816845 31.48972773 472.1957253 31.48744067 473.65321732 31.47775215 C475.63336758 31.46559785 477.61362857 31.48045099 479.59375 31.49663544 C480.69396484 31.49728485 481.79417969 31.49793426 482.92773438 31.49860334 C487.89235958 32.30883487 490.99795382 34.92163905 494.359375 38.5390625 C496.71750408 43.51359193 496.4320321 47.94904326 496.25 53.375 C496.23195313 54.39722656 496.21390625 55.41945312 496.1953125 56.47265625 C496.14839491 58.98274749 496.08276729 61.49087764 496 64 C496.92554688 63.96648437 497.85109375 63.93296875 498.8046875 63.8984375 C503.02861621 64.0326944 504.76596766 65.32840806 508 68 C512.36798213 73.17725385 512.5723081 77.17148995 512.50793457 83.640625 C512.51417453 84.60523651 512.5204145 85.56984802 512.52684355 86.56369019 C512.54278556 89.7927095 512.5301642 93.02097522 512.51757812 96.25 C512.52299868 98.56624797 512.53012097 100.88249249 512.53881836 103.19873047 C512.55706229 109.48791955 512.54997957 115.77684633 512.53730202 122.06604004 C512.52718001 128.64559642 512.53656548 135.22513024 512.54284668 141.8046875 C512.55139149 153.56210703 512.53815549 165.31941615 512.51780933 177.07681656 C512.49993868 187.73356185 512.50304291 198.39013285 512.52148438 209.046875 C512.5428985 221.42718625 512.55085424 233.80738638 512.53903532 246.18771362 C512.53279688 252.7394428 512.53197453 259.29105195 512.54518127 265.84277344 C512.55672961 272.00209514 512.54873215 278.16108745 512.52560425 284.32037354 C512.52031179 286.58188327 512.52184005 288.84342069 512.53065491 291.10491943 C512.54157232 294.19011315 512.5278919 297.27424885 512.50793457 300.359375 C512.51685746 301.25606903 512.52578034 302.15276306 512.53497362 303.07662964 C512.4662456 308.54751622 511.62800111 311.65180692 508 316 C502.53842463 321.18682656 496.70086232 320.51804976 489.6015625 320.390625 C488.41146576 320.38496521 487.22136902 320.37930542 485.99520874 320.37347412 C482.20472514 320.35113451 478.41519655 320.30093963 474.625 320.25 C472.05079493 320.22993201 469.476575 320.21168177 466.90234375 320.1953125 C460.60123822 320.15127745 454.30068735 320.08438805 448 320 C448.08715017 321.93833996 448.19532964 323.8757429 448.3125 325.8125 C448.37050781 326.89144531 448.42851562 327.97039062 448.48828125 329.08203125 C448.77474062 331.97987435 448.77474062 331.97987435 450.36103821 333.85969543 C452.94383197 335.65666931 455.31165939 335.44144026 458.41796875 335.51171875 C459.67158203 335.54716797 460.92519531 335.58261719 462.21679688 335.61914062 C463.52712891 335.64169922 464.83746094 335.66425781 466.1875 335.6875 C467.52282013 335.72067666 468.85810832 335.75516666 470.19335938 335.79101562 C473.46193825 335.87361509 476.73095644 335.93848004 480 336 C480 341.28 480 346.56 480 352 C475.01664521 352.16149761 470.04248964 352.30052863 465.05859375 352.38452148 C463.36687337 352.41955043 461.67536226 352.46719144 459.984375 352.52807617 C444.11935753 353.0846614 444.11935753 353.0846614 439.09375 348.78515625 C438.02361034 347.55624947 436.98642928 346.29706131 436 345 C435.18015625 344.24332031 434.3603125 343.48664063 433.515625 342.70703125 C431.15231097 338.48595748 431.5771818 334.42661844 431.75 329.6875 C431.8325 326.490625 431.915 323.29375 432 320 C421.44 320 410.88 320 400 320 C400.15752089 326.9706143 400.15752089 326.9706143 400.36035156 333.93994141 C400.42691017 339.79173126 400.16409228 343.51877487 396 348 C390.25239339 353.2961045 384.06301917 352.56509465 376.5625 352.51757812 C375.19204974 352.523003 373.82160532 352.53012771 372.45117188 352.53881836 C368.74035264 352.55701167 365.02997959 352.55000102 361.31915283 352.53730202 C357.43020451 352.52715349 353.54129362 352.53657283 349.65234375 352.54284668 C343.12232628 352.55011772 336.59248995 352.54054976 330.0625 352.52148438 C322.51994815 352.49971654 314.97782884 352.5067683 307.43528748 352.52879 C300.95186163 352.54695959 294.46856577 352.54949474 287.98512268 352.53903532 C284.11614902 352.53280891 280.24737847 352.53194111 276.37841797 352.54518127 C272.74043598 352.55676204 269.10301 352.54867426 265.46508789 352.52560425 C263.49821735 352.51781847 261.53129961 352.52965409 259.56445312 352.54211426 C248.81762267 352.43917527 248.81762267 352.43917527 244 348 C239.04959818 342.67258082 239.51962595 337.49191866 239.75 330.625 C239.76804688 329.60277344 239.78609375 328.58054687 239.8046875 327.52734375 C239.85159443 325.01782302 239.92333076 322.50878783 240 320 C234.72 320 229.44 320 224 320 C224.04640625 321.51851563 224.0928125 323.03703125 224.140625 324.6015625 C224.17815384 326.60935528 224.2145528 328.61716939 224.25 330.625 C224.28351563 331.62402344 224.31703125 332.62304688 224.3515625 333.65234375 C224.43048846 339.61125363 224.24551031 343.43115612 220 348 C215.19541613 352.74136566 210.21936214 352.51972728 203.8125 352.546875 C202.554375 352.53140625 201.29625 352.5159375 200 352.5 C198.741875 352.51546875 197.48375 352.5309375 196.1875 352.546875 C184.55756355 352.49759561 184.55756355 352.49759561 180 348 C175.05028333 342.67331815 175.52174604 337.48170865 175.75 330.625 C175.8325 327.11875 175.915 323.6125 176 320 C165.44 320 154.88 320 144 320 C144.15800294 329.03515277 144.15800294 329.03515277 144.36035156 338.06933594 C144.3703418 339.19629883 144.38033203 340.32326172 144.390625 341.484375 C144.41157227 342.63647461 144.43251953 343.78857422 144.45410156 344.97558594 C144 348 144 348 142.3828125 350.3828125 C139.24211757 352.51436611 137.26137957 352.45929781 133.484375 352.390625 C132.23398438 352.37773437 130.98359375 352.36484375 129.6953125 352.3515625 C127.74238281 352.30128906 127.74238281 352.30128906 125.75 352.25 C124.43257813 352.23195313 123.11515625 352.21390625 121.7578125 352.1953125 C118.50489844 352.14816882 115.25235783 352.07642616 112 352 C112 346.72 112 341.44 112 336 C117.28 336 122.56 336 128 336 C128 330.72 128 325.44 128 320 C126.07800781 320.19142578 126.07800781 320.19142578 124.1171875 320.38671875 C115.01935892 321.01671095 107.73676124 321.30559332 100.5625 315.125 C99.03641328 313.72715371 97.54495933 312.30098585 96.06298828 310.85644531 C91.31615517 306.58485726 86.09388501 302.84456723 81 299 C81.02300171 299.66080566 81.04600342 300.32161133 81.06970215 301.00244141 C82.97296514 359.68428843 82.97296514 359.68428843 67.85546875 376.36328125 C66.58540946 377.5913288 65.3007438 378.80450138 64 380 C63.06087769 381.08607544 63.06087769 381.08607544 62.1027832 382.1940918 C59.42851631 384.49080052 57.98911115 384.51483617 54.5 384.53125 C53.448125 384.53640625 52.39625 384.5415625 51.3125 384.546875 C50.219375 384.53140625 49.12625 384.5159375 48 384.5 C46.906875 384.51546875 45.81375 384.5309375 44.6875 384.546875 C43.1096875 384.53914062 43.1096875 384.53914062 41.5 384.53125 C40.5409375 384.52673828 39.581875 384.52222656 38.59375 384.51757812 C35.1664637 383.83366934 34.01299908 382.84346355 32 380 C31.54589844 376.97558594 31.54589844 376.97558594 31.609375 373.484375 C31.62226563 372.23398437 31.63515625 370.98359375 31.6484375 369.6953125 C31.68195312 368.39335937 31.71546875 367.09140625 31.75 365.75 C31.77707031 363.77386719 31.77707031 363.77386719 31.8046875 361.7578125 C31.85183118 358.50489844 31.92357384 355.25235783 32 352 C26.72 352 21.44 352 16 352 C16 346.72 16 341.44 16 336 C21.28 336 26.56 336 32 336 C32 330.72 32 325.44 32 320 C30.48148438 320.04640625 28.96296875 320.0928125 27.3984375 320.140625 C25.39064472 320.17815384 23.38283061 320.2145528 21.375 320.25 C20.37597656 320.28351563 19.37695312 320.31703125 18.34765625 320.3515625 C12.38874637 320.43048846 8.56884388 320.24551031 4 316 C-1.30446105 310.25075874 -0.5793815 304.0056407 -0.53125 296.5 C-0.5350769 295.19095703 -0.53890381 293.88191406 -0.54284668 292.53320312 C-0.54872605 289.76933804 -0.54023041 287.00599198 -0.52148438 284.2421875 C-0.49869442 280.71137169 -0.51182609 277.18177223 -0.53577423 273.65100098 C-0.55375956 270.26723823 -0.54114232 266.88379724 -0.53125 263.5 C-0.53934692 262.23736328 -0.54744385 260.97472656 -0.55578613 259.67382812 C-0.43986601 248.81214974 -0.43986601 248.81214974 4 244 C9.32741918 239.04959818 14.50808134 239.51962595 21.375 239.75 C22.39722656 239.76804687 23.41945313 239.78609375 24.47265625 239.8046875 C26.98217698 239.85159443 29.49121217 239.92333076 32 240 C32 234.72 32 229.44 32 224 C26.72 224 21.44 224 16 224 C16 218.72 16 213.44 16 208 C21.28 208 26.56 208 32 208 C32 202.72 32 197.44 32 192 C26.72 192 21.44 192 16 192 C16 186.72 16 181.44 16 176 C21.28 176 26.56 176 32 176 C32 170.72 32 165.44 32 160 C30.48148438 160.04640625 28.96296875 160.0928125 27.3984375 160.140625 C25.39064472 160.17815384 23.38283061 160.2145528 21.375 160.25 C20.37597656 160.28351563 19.37695312 160.31703125 18.34765625 160.3515625 C12.38874637 160.43048846 8.56884388 160.24551031 4 156 C-1.30446105 150.25075874 -0.5793815 144.0056407 -0.53125 136.5 C-0.5350769 135.19095703 -0.53890381 133.88191406 -0.54284668 132.53320312 C-0.54872605 129.76933804 -0.54023041 127.00599198 -0.52148438 124.2421875 C-0.49869442 120.71137169 -0.51182609 117.18177223 -0.53577423 113.65100098 C-0.55375956 110.26723823 -0.54114232 106.88379724 -0.53125 103.5 C-0.53934692 102.23736328 -0.54744385 100.97472656 -0.55578613 99.67382812 C-0.43986601 88.81214974 -0.43986601 88.81214974 4 84 C9.32741918 79.04959818 14.50808134 79.51962595 21.375 79.75 C22.39722656 79.76804687 23.41945313 79.78609375 24.47265625 79.8046875 C26.98217698 79.85159443 29.49121217 79.92333076 32 80 C32 74.72 32 69.44 32 64 C26.72 64 21.44 64 16 64 C16 58.72 16 53.44 16 48 C21.28 48 26.56 48 32 48 C32 37.44 32 26.88 32 16 C21.44 16 10.88 16 0 16 C0 10.72 0 5.44 0 0 Z M48 16 C48 132.16 48 248.32 48 368 C54.81251443 366.29687139 57.851607 360.67086421 61.36579895 354.85025024 C66.74568151 344.35591469 65.6919018 332.13132028 65.56869602 320.62818289 C65.54122445 316.82418612 65.58360834 313.02081601 65.61645508 309.21694946 C65.66949227 301.78932667 65.65843763 294.36316829 65.62350339 286.93549085 C65.59627311 280.89285713 65.59278255 274.85063051 65.60578918 268.80795288 C65.60762798 267.94412528 65.60946678 267.08029768 65.61136129 266.19029349 C65.61519845 264.43480615 65.61908902 262.67931893 65.62303239 260.92383182 C65.65715621 244.50728261 65.61805774 228.09154078 65.55342799 211.67512405 C65.49982227 197.62448353 65.50913728 183.57503313 65.56445312 169.52441406 C65.62884105 153.16203548 65.65386121 136.80036241 65.61710596 120.43787479 C65.61328384 118.68926568 65.60951138 116.94065645 65.60578918 115.19204712 C65.60301223 113.90191508 65.60301223 113.90191508 65.60017917 112.58571976 C65.5898684 106.55846789 65.60719646 100.53166792 65.63554382 94.50448608 C65.66939004 87.14724606 65.65970384 79.7915397 65.5961749 72.4344728 C65.56488231 68.68856804 65.55184402 64.94520857 65.59196472 61.19932938 C65.75760326 44.3585889 64.80748378 31.52395408 53.5310235 18.28055859 C51.79561594 16.63980192 51.79561594 16.63980192 48 16 Z M128 48 C128 53.28 128 58.56 128 64 C244.16 64 360.32 64 480 64 C480 58.72 480 53.44 480 48 C363.84 48 247.68 48 128 48 Z M96.11405051 94.05798399 C93.51049525 96.44967046 90.74027527 98.10271917 87.68840641 99.85530263 C83.33660614 102.41993707 80.49860244 104.5941331 78.74496841 109.53870583 C78.0000176 113.86589229 78.08093223 118.15881023 78.15673828 122.53442383 C78.13445615 124.18974894 78.10626673 125.84500336 78.07266235 127.50013733 C78.00061999 131.9727374 78.01669792 136.44090217 78.05357981 140.91377473 C78.07601347 144.65871771 78.05405718 148.4028684 78.03203571 152.14777297 C77.98040074 160.98997925 77.99934956 169.8300584 78.06494141 178.67211914 C78.1313868 187.76708232 78.08924762 196.85682531 77.99153721 205.95138913 C77.91066322 213.78399174 77.89260975 221.61499776 77.92519939 229.44795054 C77.94432595 234.11563662 77.9416044 238.78046875 77.88040543 243.447855 C76.63286516 263.31536514 76.63286516 263.31536514 83.42938232 281.02792358 C86.62161674 283.97066336 90.00966438 286.03593515 93.91172409 287.90512657 C97.53321258 289.80385628 100.55388429 292.46114971 103.6875 295.0625 C104.79260765 295.93216673 105.9005543 296.79824168 107.01171875 297.66015625 C110 300 110 300 112.08684826 302.11617661 C116.25330686 304.81046543 119.73520947 304.54345417 124.59870911 304.48101807 C125.57078314 304.48443577 126.54285717 304.48785347 127.544388 304.49137473 C130.80438662 304.49796776 134.06356345 304.47595341 137.32348633 304.45410156 C139.65916932 304.4529734 141.99485373 304.45360634 144.33053589 304.45587158 C150.67520268 304.45702085 157.01956797 304.43347673 163.36416459 304.40557575 C169.3217571 304.3831278 175.27933784 304.3790843 181.23696693 304.37496826 C193.03620871 304.36621651 204.8353398 304.33960425 216.63452148 304.30175781 C228.09545336 304.26503458 239.55635515 304.23672437 251.01733398 304.21972656 C251.72393832 304.21867567 252.43054265 304.21762477 253.15855924 304.21654204 C256.70343077 304.21132184 260.2483025 304.20626702 263.79317439 304.20129442 C293.19552096 304.15983614 322.5977593 304.08909339 352 304 C352 309.28 352 314.56 352 320 C320.32 320 288.64 320 256 320 C256 325.28 256 330.56 256 336 C298.24 336 340.48 336 384 336 C384 330.72 384 325.44 384 320 C378.72 320 373.44 320 368 320 C368 314.72 368 309.44 368 304 C410.24 304 452.48 304 496 304 C496 285.52 496 267.04 496 248 C473.43745945 247.33757333 473.43745945 247.33757333 450.87355232 246.8944149 C442.79215298 246.77312571 434.71582244 246.61996642 426.63818359 246.34033203 C420.23542783 246.11878786 413.83651546 245.97861891 407.43003333 245.93005311 C404.0429611 245.90168953 400.67544325 245.82489521 397.29035568 245.67393875 C385.37373189 245.16427064 374.68166367 244.82065006 365.36114502 253.00897217 C360.40959653 257.59211717 356.00368285 262.64344102 351.78203773 267.90103722 C350 270 350 270 348 271 C346.09091814 271.1199408 344.17777752 271.17731288 342.26513672 271.20532227 C341.06404266 271.22526749 339.86294861 271.24521271 338.62545776 271.26576233 C336.67230148 271.29083107 336.67230148 271.29083107 334.6796875 271.31640625 C333.33732462 271.33697625 331.99496821 271.35797273 330.65261841 271.37937927 C327.11811562 271.43459531 323.58355443 271.48400658 320.0489502 271.53222656 C316.44273678 271.58244504 312.83660828 271.63812929 309.23046875 271.69335938 C302.15371802 271.80093519 295.07688902 271.90187639 288 272 C288 266.72 288 261.44 288 256 C290.19003662 256.17281494 290.19003662 256.17281494 292.42431641 256.34912109 C321.70212132 259.99911903 321.70212132 259.99911903 348.28125 251.13671875 C353.15111988 246.80792532 357.10181067 241.6243965 360.57861328 236.13305664 C362 234 362 234 364 233 C365.74822059 232.89494776 367.50040403 232.85341288 369.2517395 232.84178162 C370.36515717 232.8319928 371.47857483 232.82220398 372.62573242 232.81211853 C373.85283936 232.80636307 375.07994629 232.8006076 376.34423828 232.79467773 C378.27588333 232.77982834 378.27588333 232.77982834 380.24655151 232.76467896 C383.78349039 232.73760073 387.32044266 232.716607 390.85742807 232.69667697 C394.55169531 232.67483538 398.24592116 232.64743777 401.94015503 232.62062073 C408.93826094 232.57066908 415.93638979 232.52573944 422.93454063 232.48259836 C430.9006054 232.43324709 438.86662865 232.37832115 446.83265328 232.32291877 C463.22173085 232.20906079 479.61084697 232.10242783 496 232 C496 226.72 496 221.44 496 216 C469.6 216 443.2 216 416 216 C416 210.72 416 205.44 416 200 C442.4 200 468.8 200 496 200 C496 194.72 496 189.44 496 184 C469.6 184 443.2 184 416 184 C416 178.72 416 173.44 416 168 C442.4 168 468.8 168 496 168 C496 162.72 496 157.44 496 152 C494.48871017 152.01856049 492.97742035 152.03712097 491.42033386 152.0562439 C477.1071924 152.22275084 462.79564617 152.31508386 448.48165417 152.33421898 C441.12422042 152.34591148 433.76867 152.38318517 426.41186523 152.48339844 C419.99005531 152.57080746 413.57016909 152.60745388 407.14776784 152.58627188 C403.75461212 152.5767714 400.36559533 152.59055017 396.97316551 152.66541672 C379.31542291 152.99558955 367.86866524 151.09186374 354.75589943 138.71934891 C354.17645262 138.15196377 353.59700581 137.58457863 353 137 C352.20151925 136.22344118 352.20151925 136.22344118 351.38690758 135.43119431 C350.90646303 134.96210773 350.42601849 134.49302116 349.93101501 134.00971985 C342.43968103 126.72254655 334.74317841 127.08844521 324.69958496 127.13882446 C321.04844456 127.21009753 317.40000427 127.32263973 313.75 127.4375 C311.25137432 127.48270273 308.75266996 127.52375707 306.25390625 127.56054688 C300.16730999 127.65913099 294.08453011 127.81410852 288 128 C288 122.72 288 117.44 288 112 C295.49533392 111.81230911 302.98709159 111.68770243 310.48465443 111.66578102 C313.968961 111.65324609 317.44888887 111.61603871 320.93188477 111.51660156 C337.49720929 111.06388293 350.05758754 111.56189847 362.76831055 123.10693359 C363.45051666 123.72188187 364.13272278 124.33683014 364.83560181 124.97041321 C367 127 367 127 369.24032593 129.4440155 C379.50271377 139.16570516 392.50063976 137.13064433 405.765625 136.87890625 C408.37162062 136.8620998 410.97764486 136.84929827 413.5836792 136.84031677 C419.71448711 136.81249628 425.84382679 136.73885661 431.97399211 136.64817137 C439.64774275 136.53714944 447.32173879 136.48831903 454.99609375 136.43945312 C468.66520221 136.35214501 482.33111336 136.17181561 496 136 C496 117.52 496 99.04 496 80 C447.8205638 79.63783312 399.64145602 79.35159729 351.46092694 79.18295473 C345.76488326 79.1629449 340.06884232 79.1422356 334.37280273 79.12109375 C333.23888703 79.11689678 332.10497132 79.11269982 330.93669453 79.10837567 C312.60815033 79.03887047 294.28041412 78.91278319 275.95234827 78.76555526 C257.12742072 78.61560423 238.30291452 78.52699126 219.47741431 78.49458408 C207.8729079 78.47269618 196.27068558 78.40373112 184.66688284 78.27333653 C176.69528453 78.1883546 168.72485619 78.16328788 160.75283847 78.18397796 C156.16144467 78.19416663 151.57402266 78.1792537 146.98334694 78.0927124 C126.10975257 77.71901674 111.73117018 78.54681414 96.11405051 94.05798399 Z M16 96 C16 111.84 16 127.68 16 144 C21.28 144 26.56 144 32 144 C32 128.16 32 112.32 32 96 C26.72 96 21.44 96 16 96 Z M16 256 C16 271.84 16 287.68 16 304 C21.28 304 26.56 304 32 304 C32 288.16 32 272.32 32 256 C26.72 256 21.44 256 16 256 Z M192 320 C192 325.28 192 330.56 192 336 C197.28 336 202.56 336 208 336 C208 330.72 208 325.44 208 320 C202.72 320 197.44 320 192 320 Z " fill="#000000" transform="translate(0,64)"/>
<path d="M0 0 C1.76424871 1.50428073 3.51535343 3.02417777 5.25 4.5625 C6.29607422 5.48289063 6.29607422 5.48289063 7.36328125 6.421875 C23.1530464 21.23071285 34.38941878 43.56896616 35.37451172 65.31054688 C36.12943434 95.03855564 30.41636167 118.82245931 10.25 141.5625 C9.32960938 142.60857422 9.32960938 142.60857422 8.390625 143.67578125 C-6.41821285 159.4655464 -28.75646616 170.70191878 -50.49804688 171.68701172 C-80.22605564 172.44193434 -104.00995931 166.72886167 -126.75 146.5625 C-127.44738281 145.94890625 -128.14476562 145.3353125 -128.86328125 144.703125 C-144.6530464 129.89428715 -155.88941878 107.55603384 -156.87451172 85.81445312 C-157.62943434 56.08644436 -151.91636167 32.30254069 -131.75 9.5625 C-131.13640625 8.86511719 -130.5228125 8.16773438 -129.890625 7.44921875 C-96.42024725 -28.23821394 -37.52700084 -30.00098144 0 0 Z M-52.75 -3.4375 C-52.75 9.4325 -52.75 22.3025 -52.75 35.5625 C-45.84727074 38.81020347 -45.84727074 38.81020347 -38.75 41.5625 C-34.89844023 37.76026083 -31.05340607 33.95158788 -27.21435547 30.13671875 C-25.90657422 28.83901486 -24.59700631 27.54310901 -23.28564453 26.24902344 C-21.40448499 24.39203602 -19.52977878 22.52874438 -17.65625 20.6640625 C-17.06565796 20.08379303 -16.47506592 19.50352356 -15.86657715 18.90567017 C-14.45591649 17.49540372 -13.09739684 16.03332858 -11.75 14.5625 C-11.75 13.9025 -11.75 13.2425 -11.75 12.5625 C-22.80217364 4.07562778 -38.48013931 -3.4375 -52.75 -3.4375 Z M-109.75 12.5625 C-108.12843976 16.66358886 -105.1732297 19.39398167 -102.0859375 22.421875 C-101.53386627 22.97111633 -100.98179504 23.52035767 -100.41299438 24.08624268 C-98.65498185 25.83309293 -96.8901311 27.57284601 -95.125 29.3125 C-93.9292292 30.49823591 -92.73391135 31.6844288 -91.5390625 32.87109375 C-88.61459747 35.77355085 -85.68398126 38.6696641 -82.75 41.5625 C-80.60294019 40.75324658 -78.4573817 39.94000887 -76.3125 39.125 C-75.11753906 38.67253906 -73.92257813 38.22007812 -72.69140625 37.75390625 C-69.90554277 36.8480174 -69.90554277 36.8480174 -68.75 35.5625 C-68.66134792 32.6781618 -68.63478704 29.81787842 -68.65234375 26.93359375 C-68.6537587 26.06936295 -68.65517365 25.20513214 -68.65663147 24.31471252 C-68.66224761 21.54310708 -68.67480281 18.7715812 -68.6875 16 C-68.69251292 14.1256522 -68.69707619 12.25130315 -68.70117188 10.37695312 C-68.71222228 5.77210456 -68.7294977 1.16731579 -68.75 -3.4375 C-83.43112052 -3.4375 -97.97088134 4.44396898 -109.75 12.5625 Z M-123.75 26.5625 C-132.23687222 37.61467364 -139.75 53.29263931 -139.75 67.5625 C-126.88 67.5625 -114.01 67.5625 -100.75 67.5625 C-97.50229653 60.65977074 -97.50229653 60.65977074 -94.75 53.5625 C-98.55223917 49.71094023 -102.36091212 45.86590607 -106.17578125 42.02685547 C-107.47348514 40.71907422 -108.76939099 39.40950631 -110.06347656 38.09814453 C-111.92046398 36.21698499 -113.78375562 34.34227878 -115.6484375 32.46875 C-116.22870697 31.87815796 -116.80897644 31.28756592 -117.40682983 30.67907715 C-118.81709628 29.26841649 -120.27917142 27.90989684 -121.75 26.5625 C-122.41 26.5625 -123.07 26.5625 -123.75 26.5625 Z M-2.45556641 29.04101562 C-3.59270817 30.17847526 -4.72433228 31.32146718 -5.8515625 32.46875 C-6.44802582 33.06804321 -7.04448914 33.66733643 -7.6590271 34.28479004 C-9.56907912 36.20606607 -11.47207327 38.13416895 -13.375 40.0625 C-14.66620881 41.36373574 -15.95786974 42.66452301 -17.25 43.96484375 C-20.42194252 47.1588761 -23.58757072 50.35904938 -26.75 53.5625 C-25.94074658 55.70955981 -25.12750887 57.8551183 -24.3125 60 C-23.86003906 61.19496094 -23.40757812 62.38992187 -22.94140625 63.62109375 C-22.0355174 66.40695723 -22.0355174 66.40695723 -20.75 67.5625 C-17.8656618 67.65115208 -15.00537842 67.67771296 -12.12109375 67.66015625 C-11.25686295 67.6587413 -10.39263214 67.65732635 -9.50221252 67.65586853 C-6.73060708 67.65025239 -3.9590812 67.63769719 -1.1875 67.625 C0.6868478 67.61998708 2.56119685 67.61542381 4.43554688 67.61132812 C9.04039544 67.60027772 13.64518421 67.5830023 18.25 67.5625 C16.48914221 54.67770374 13.08775142 43.69060525 6.25 32.5625 C5.87617188 31.94117188 5.50234375 31.31984375 5.1171875 30.6796875 C4.22786375 29.26335709 3.24791978 27.90453005 2.25 26.5625 C-0.11574577 26.33733681 -0.11574577 26.33733681 -2.45556641 29.04101562 Z M-80.3046875 62.46484375 C-84.42977895 68.45180081 -84.46608142 74.51185212 -83.75 81.5625 C-81.97657567 88.20722914 -77.3033353 92.73617959 -71.75 96.5625 C-65.75112996 99.50312257 -58.8671647 99.66133788 -52.4375 97.9453125 C-46.30867139 95.24000925 -41.51047208 90.15386305 -38.578125 84.171875 C-36.67194143 78.16559848 -36.68561313 71.05958442 -39.25 65.25 C-42.73462138 59.31002263 -48.1845583 54.64614317 -54.75 52.5625 C-66.18445097 51.20613754 -72.92817489 53.83603946 -80.3046875 62.46484375 Z M-139.75 83.5625 C-137.63346723 99.04989124 -132.62858742 111.73787373 -123.75 124.5625 C-119.64891114 122.94093976 -116.91851833 119.9857297 -113.890625 116.8984375 C-113.066763 116.07033066 -113.066763 116.07033066 -112.22625732 115.22549438 C-110.47940707 113.46748185 -108.73965399 111.7026311 -107 109.9375 C-105.81426409 108.7417292 -104.6280712 107.54641135 -103.44140625 106.3515625 C-100.53894915 103.42709747 -97.6428359 100.49648126 -94.75 97.5625 C-95.55925342 95.41544019 -96.37249113 93.2698817 -97.1875 91.125 C-97.63996094 89.93003906 -98.09242188 88.73507812 -98.55859375 87.50390625 C-99.4644826 84.71804277 -99.4644826 84.71804277 -100.75 83.5625 C-103.6343382 83.47384792 -106.49462158 83.44728704 -109.37890625 83.46484375 C-110.24313705 83.4662587 -111.10736786 83.46767365 -111.99778748 83.46913147 C-114.76939292 83.47474761 -117.5409188 83.48730281 -120.3125 83.5 C-122.1868478 83.50501292 -124.06119685 83.50957619 -125.93554688 83.51367188 C-130.54039544 83.52472228 -135.14518421 83.5419977 -139.75 83.5625 Z M-20.75 83.5625 C-22.73 87.8525 -24.71 92.1425 -26.75 96.5625 C-21.94715445 102.37265376 -16.76460623 107.73411255 -11.43505859 113.06274414 C-9.98374698 114.5162779 -8.54066512 115.97768173 -7.09765625 117.43945312 C-6.18371094 118.35533203 -5.26976562 119.27121094 -4.328125 120.21484375 C-3.49700195 121.05007568 -2.66587891 121.88530762 -1.80957031 122.74584961 C0.04226996 124.7829984 0.04226996 124.7829984 2.25 124.5625 C10.73687222 113.51032636 18.25 97.83236069 18.25 83.5625 C5.38 83.5625 -7.49 83.5625 -20.75 83.5625 Z M-82.75 109.5625 C-86.60155977 113.36473917 -90.44659393 117.17341212 -94.28564453 120.98828125 C-95.59342578 122.28598514 -96.90299369 123.58189099 -98.21435547 124.87597656 C-100.09551501 126.73296398 -101.97022122 128.59625562 -103.84375 130.4609375 C-104.43434204 131.04120697 -105.02493408 131.62147644 -105.63342285 132.21932983 C-107.04408351 133.62959628 -108.40260316 135.09167142 -109.75 136.5625 C-109.75 137.2225 -109.75 137.8825 -109.75 138.5625 C-98.69782636 147.04937222 -83.01986069 154.5625 -68.75 154.5625 C-68.75 141.6925 -68.75 128.8225 -68.75 115.5625 C-75.65272926 112.31479653 -75.65272926 112.31479653 -82.75 109.5625 Z M-44.0625 111.4375 C-45.23232422 111.95957031 -45.23232422 111.95957031 -46.42578125 112.4921875 C-48.55430536 113.4723818 -50.65402371 114.51451186 -52.75 115.5625 C-52.75 128.4325 -52.75 141.3025 -52.75 154.5625 C-36.92101825 152.12727204 -24.78177037 147.58449487 -11.75 138.5625 C-13.37217175 134.4737718 -16.30693387 131.73371318 -19.37890625 128.703125 C-19.9286058 128.15388367 -20.47830536 127.60464233 -21.04466248 127.03875732 C-22.20310855 125.88332415 -23.36397594 124.73031416 -24.52709961 123.57958984 C-26.31490851 121.81011619 -28.09450704 120.03269144 -29.87304688 118.25390625 C-30.99952769 117.13233792 -32.12646495 116.01122781 -33.25390625 114.890625 C-33.78931534 114.35632874 -34.32472443 113.82203247 -34.87635803 113.27154541 C-38.89261878 109.30715466 -39.04502691 109.18743842 -44.0625 111.4375 Z " fill="#000000" transform="translate(252.75,180.4375)"/>
<path d="M0 0 C2.0741661 0.0351581 4.14838955 0.06708917 6.22265625 0.09570312 C11.27486687 0.1723736 16.32429539 0.2929127 21.375 0.4375 C21.375 5.7175 21.375 10.9975 21.375 16.4375 C18.94769531 16.3240625 16.52039063 16.210625 14.01953125 16.09375 C-9.93268118 15.34850611 -9.93268118 15.34850611 -30.1550293 27.18164062 C-34.43942193 31.27921868 -34.43942193 31.27921868 -38.59375 35.50708008 C-47.12066026 43.08431531 -58.57769825 41.18968955 -69.25 40.875 C-71.3241661 40.8398419 -73.39838955 40.80791083 -75.47265625 40.77929688 C-80.52486687 40.7026264 -85.57429539 40.5820873 -90.625 40.4375 C-90.625 35.1575 -90.625 29.8775 -90.625 24.4375 C-88.19769531 24.5509375 -85.77039063 24.664375 -83.26953125 24.78125 C-59.31731882 25.52649389 -59.31731882 25.52649389 -39.0949707 13.69335938 C-34.81057807 9.59578132 -34.81057807 9.59578132 -30.65625 5.36791992 C-22.12933974 -2.20931531 -10.67230175 -0.31468955 0 0 Z " fill="#000000" transform="translate(378.625,263.5625)"/>
<path d="M0 0 C44.80772914 -2.66346812 44.80772914 -2.66346812 55.5 6.4375 C57.40848806 8.21720331 59.2165842 10.05631153 61.01269531 11.94897461 C69.2432658 20.44344914 75.01536751 23.91761529 86.72338867 24.14549255 C89.23334805 24.14649488 91.74045188 24.10573476 94.25 24.0625 C95.97787668 24.06558144 97.70575108 24.07271371 99.43359375 24.08398438 C103.62581453 24.11011039 107.80507434 24.05339773 112 24 C112 29.28 112 34.56 112 40 C67.19227086 42.66346812 67.19227086 42.66346812 56.5 33.5625 C54.59151194 31.78279669 52.7834158 29.94368847 50.98730469 28.05102539 C42.7567342 19.55655086 36.98463249 16.08238471 25.27661133 15.85450745 C22.76665195 15.85350512 20.25954812 15.89426524 17.75 15.9375 C16.02212332 15.93441856 14.29424892 15.92728629 12.56640625 15.91601562 C8.37418547 15.88988961 4.19492566 15.94660227 0 16 C0 10.72 0 5.44 0 0 Z " fill="#000000" transform="translate(288,208)"/>
<path d="M0 0 C10.56 0 21.12 0 32 0 C32 5.28 32 10.56 32 16 C21.44 16 10.88 16 0 16 C0 10.72 0 5.44 0 0 Z " fill="#000000" transform="translate(304,248)"/>
<path d="M0 0 C5.28 0 10.56 0 16 0 C16 5.28 16 10.56 16 16 C10.72 16 5.44 16 0 16 C0 10.72 0 5.44 0 0 Z " fill="#000000" transform="translate(464,336)"/>
<path d="M0 0 C5.28 0 10.56 0 16 0 C16 5.28 16 10.56 16 16 C10.72 16 5.44 16 0 16 C0 10.72 0 5.44 0 0 Z " fill="#000000" transform="translate(464,160)"/>
</svg>
