<?xml version="1.0" encoding="UTF-8"?>
<svg version="1.1" xmlns="http://www.w3.org/2000/svg" width="512" height="512">
<path d="M0 0 C1.69184166 -0.02398109 1.69184166 -0.02398109 3.41786194 -0.04844666 C4.62631271 -0.05380936 5.83476349 -0.05917206 7.07983398 -0.06469727 C8.95275368 -0.07823997 8.95275368 -0.07823997 10.86351013 -0.09205627 C13.50046229 -0.10655097 16.13698134 -0.11623884 18.77392578 -0.11914062 C22.14923615 -0.12453868 25.5233578 -0.16229281 28.89833164 -0.20788479 C32.12542859 -0.24479368 35.35255426 -0.24616672 38.57983398 -0.25219727 C39.79030899 -0.27172958 41.000784 -0.2912619 42.24794006 -0.31138611 C50.56944496 -0.2664195 50.56944496 -0.2664195 54.06005859 2.61474609 C55.7012074 6.28560541 55.32880002 8.47105624 54.26342773 12.30639648 C52.68456808 14.36577865 51.5720035 15.1521086 49.26342773 16.30639648 C47.64552467 16.40995455 46.02351475 16.45231261 44.40234375 16.46411133 C43.39111954 16.47437347 42.37989532 16.48463562 41.33802795 16.49520874 C40.24219894 16.50251007 39.14636993 16.5098114 38.01733398 16.51733398 C35.71329034 16.54539614 33.40925397 16.57406056 31.10522461 16.60327148 C27.45996249 16.64460266 23.81483706 16.68147646 20.16943359 16.70776367 C16.66011281 16.7352859 13.15141631 16.78115246 9.64233398 16.82983398 C8.54852921 16.83308685 7.45472443 16.83633972 6.32777405 16.83969116 C5.31339767 16.85625763 4.2990213 16.8728241 3.25390625 16.88989258 C2.36059097 16.89797943 1.4672757 16.90606628 0.54689026 16.91439819 C-2.19188943 17.38456004 -3.08380179 18.10871442 -4.73657227 20.30639648 C-5.23903902 22.61890485 -5.23903902 22.61890485 -5.24829102 25.19311523 C-5.28374023 26.1309082 -5.31918945 27.06870117 -5.35571289 28.03491211 C-5.37827148 29.01137695 -5.40083008 29.9878418 -5.42407227 30.99389648 C-5.45823242 31.98196289 -5.49239258 32.9700293 -5.52758789 33.98803711 C-5.61007765 36.42737701 -5.67922294 38.86635712 -5.73657227 41.30639648 C-4.81545654 41.26712036 -4.81545654 41.26712036 -3.87573242 41.22705078 C19.5314845 40.35889579 19.5314845 40.35889579 26.26342773 46.30639648 C32.11741484 52.56966659 35.13950113 58.71415206 35.26342773 67.30639648 C34.47690807 74.89693545 31.63861095 80.24025122 26.07592773 85.49389648 C19.21311223 90.9761289 11.73362222 91.75206179 3.20092773 91.49389648 C2.33532227 91.48036133 1.4697168 91.46682617 0.57788086 91.45288086 C-1.527214 91.41798978 -3.63198201 91.36420313 -5.73657227 91.30639648 C-5.69852556 99.84294286 -5.63917993 108.37896243 -5.55266953 116.91514206 C-5.51316718 120.87891033 -5.48099252 124.84245555 -5.46557617 128.80639648 C-5.4504273 132.63218467 -5.41601452 136.45735974 -5.36826324 140.28287506 C-5.35343094 141.74204427 -5.34553018 143.201301 -5.34468842 144.66054535 C-5.34232232 146.70559477 -5.31527744 148.74894478 -5.2824707 150.79370117 C-5.27358826 151.95730164 -5.26470581 153.1209021 -5.2555542 154.31976318 C-4.60252834 158.07779144 -3.77212574 159.02663567 -0.73657227 161.30639648 C2.00496262 161.69848353 4.34454218 161.8443248 7.08460999 161.80976105 C7.88156261 161.81557481 8.67851523 161.82138857 9.49961793 161.82737851 C12.18689724 161.84204941 14.87327328 161.82806057 17.56054688 161.81433105 C19.49980927 161.81893717 21.43906818 161.82528813 23.37831974 161.83324003 C28.72039396 161.8499962 34.06218373 161.84165847 39.4042592 161.82929516 C45.16030371 161.82027265 50.9162981 161.83420045 56.67233276 161.84521484 C67.95357981 161.86303464 79.23472063 161.85914468 90.5159719 161.84756428 C99.68156544 161.83854383 108.84712913 161.83729994 118.01272583 161.84165955 C119.31544876 161.84227248 120.61817169 161.84288541 121.96037108 161.84351692 C124.60653203 161.84479577 127.25269297 161.84609262 129.8988539 161.84740728 C154.02430013 161.85849755 178.1496904 161.84698153 202.27512754 161.82603689 C224.30869359 161.80705381 246.34216718 161.80875229 268.37573242 161.82788086 C293.11859204 161.8492896 317.8613984 161.85772449 342.60426617 161.8454318 C345.24088732 161.84415756 347.87750847 161.84290008 350.51412964 161.84165955 C351.81151866 161.84104244 353.10890769 161.84042534 354.44561154 161.83978954 C363.60398189 161.83633067 372.76231952 161.84217654 381.92068481 161.85157776 C393.07625737 161.86277703 404.2317173 161.85980137 415.38727689 161.83845478 C421.08291275 161.82791646 426.77836059 161.82386983 432.47399521 161.83705139 C437.68250072 161.84892359 442.89064295 161.84249852 448.09911525 161.82114118 C449.9886873 161.81665309 451.8782897 161.81899045 453.76784241 161.82864434 C456.3264199 161.840719 458.88373515 161.82842536 461.44224548 161.80976105 C462.55583185 161.82380804 462.55583185 161.82380804 463.69191492 161.83813882 C467.1084027 161.78794893 468.95369971 161.53900837 471.71981525 159.46160078 C473.84549525 156.49370909 473.78159459 154.42653784 473.80932617 150.79370117 C473.81966385 150.14938141 473.83000153 149.50506165 473.84065247 148.84121704 C473.87005667 146.71997938 473.87157898 144.59969683 473.87280273 142.47827148 C473.88778618 141.00423363 473.90451368 139.53021256 473.9229126 138.05621338 C473.96658078 134.1830162 473.98658373 130.31004548 474.00164795 126.43664551 C474.02122119 122.48163465 474.06319086 118.52686828 474.10327148 114.57202148 C474.17856763 106.81687889 474.22886234 99.06183892 474.26342773 91.30639648 C472.41225342 91.32488647 472.41225342 91.32488647 470.52368164 91.34375 C468.88745289 91.35371985 467.25122228 91.36338819 465.61499023 91.37280273 C464.80360596 91.38170532 463.99222168 91.39060791 463.15625 91.39978027 C453.78603855 91.44018961 446.86653094 89.91597775 439.95483398 83.25561523 C435.13582291 77.70206668 433.17596215 71.62851577 433.26342773 64.30639648 C433.93086332 55.98475282 437.83031258 50.56785588 443.76342773 44.93139648 C450.11854418 40.80057079 456.31844419 41.05860966 463.63842773 41.18139648 C465.17176758 41.19493164 465.17176758 41.19493164 466.73608398 41.20874023 C469.24544295 41.23219219 471.7543111 41.26501293 474.26342773 41.30639648 C474.18261192 37.86792902 474.06976621 34.43124336 473.95092773 30.99389648 C473.92836914 30.01743164 473.90581055 29.0409668 473.88256836 28.03491211 C473.82939453 26.62822266 473.82939453 26.62822266 473.77514648 25.19311523 C473.7489624 24.32904053 473.72277832 23.46496582 473.69580078 22.57470703 C473.15452082 19.73505026 472.58723125 19.01367361 470.26342773 17.30639648 C467.25206609 16.85336035 467.25206609 16.85336035 463.73938942 16.93001556 C462.73608269 16.92363889 462.73608269 16.92363889 461.71250713 16.91713339 C459.45499537 16.90646421 457.19808738 16.91728246 454.94058228 16.92785645 C453.31225732 16.92456786 451.68393459 16.91995581 450.05561674 16.91412878 C445.56836356 16.90187159 441.08129828 16.90830416 436.59404516 16.91763377 C431.75958708 16.9244102 426.9251644 16.91390783 422.0907135 16.90534973 C413.70935232 16.89276375 405.32804272 16.89081687 396.94667435 16.89570618 C384.82308346 16.9025018 372.69957065 16.89001889 360.5759937 16.872199 C340.9005194 16.84352653 321.22505352 16.82603005 301.54956055 16.81762695 C300.37127577 16.81711977 299.19299099 16.8166126 297.97900061 16.81609005 C289.61547643 16.81256291 281.25195211 16.80943368 272.88842773 16.80639648 C263.3382974 16.80292799 253.78816719 16.79927887 244.23803711 16.79516602 C243.06178904 16.7946634 241.88554098 16.79416078 240.67364903 16.79364294 C221.07570871 16.78490531 201.47779735 16.76448149 181.87987649 16.73568392 C169.78397743 16.7184806 157.68816015 16.71192955 145.59225045 16.71898997 C137.30658825 16.72316233 129.02097767 16.71684207 120.7353275 16.70219123 C115.95096481 16.69411514 111.16673006 16.69105251 106.38236809 16.70101357 C102.00527292 16.71005083 97.62841602 16.7054246 93.25134139 16.68979913 C91.6652172 16.6866003 90.07907306 16.68851264 88.49296315 16.69596452 C86.34140061 16.70535511 84.19067031 16.69639257 82.03914833 16.6827774 C80.84275691 16.68250502 79.64636548 16.68223264 78.41371977 16.681952 C74.94037534 16.26788447 73.04719741 15.38906461 70.26342773 13.30639648 C69.41577148 11.43920898 69.41577148 11.43920898 69.20092773 9.43139648 C69.05977539 8.44526367 69.05977539 8.44526367 68.91577148 7.43920898 C69.45114677 4.15477184 70.935735 2.64068974 73.26342773 0.30639648 C76.32224011 -0.31919867 76.32224011 -0.31919867 79.99583817 -0.32001591 C80.67509462 -0.32698351 81.35435107 -0.33395112 82.05419105 -0.34112987 C84.34140363 -0.35844207 86.6269375 -0.33997517 88.91412354 -0.3217926 C90.56592701 -0.32683537 92.21772502 -0.33406211 93.86951041 -0.34329075 C98.41724199 -0.36227931 102.96443835 -0.3499422 107.51215672 -0.33256781 C112.41347338 -0.31923149 117.31470976 -0.33461765 122.21601868 -0.34638977 C131.82222215 -0.36480035 141.42822265 -0.35623055 151.03441986 -0.33830155 C158.84176561 -0.32429123 166.64905616 -0.32037937 174.45641327 -0.32374382 C176.12151544 -0.32445998 176.12151544 -0.32445998 177.82025604 -0.32519061 C180.07520107 -0.32621692 182.33014608 -0.32727228 184.58509108 -0.32835638 C204.54057339 -0.33693077 224.49595758 -0.32022625 244.45141602 -0.29052734 C263.818971 -0.26170372 283.18638454 -0.25459811 302.55395508 -0.27001953 C323.6330539 -0.28678073 344.71208552 -0.2908155 365.79118609 -0.27330917 C368.03918377 -0.27146476 370.28718145 -0.26963003 372.53517914 -0.2678051 C374.19433299 -0.26643696 374.19433299 -0.26643696 375.88700511 -0.26504119 C383.68344268 -0.2594341 391.47984747 -0.26274474 399.27628326 -0.26935005 C408.78009654 -0.277082 418.28377057 -0.27033604 427.78755578 -0.24517501 C432.6371323 -0.23267503 437.48649199 -0.22653944 442.33607674 -0.23771667 C446.77627879 -0.24775705 451.21604844 -0.23930365 455.65619788 -0.21613549 C457.2618555 -0.21097591 458.86755186 -0.21253861 460.4731926 -0.22153015 C469.68148053 -0.26880302 476.9938175 -0.24093126 484.28686523 6.05249023 C484.73288086 6.6106543 485.17889648 7.16881836 485.63842773 7.74389648 C486.3306543 8.57727539 486.3306543 8.57727539 487.03686523 9.42749023 C491.18710677 15.78502583 490.7047983 22.65795833 490.74389648 29.97094727 C490.76331766 32.16893859 490.8254139 34.36318758 490.88842773 36.56030273 C491.06818062 48.32774484 491.06818062 48.32774484 487.54467773 52.68920898 C483.63668083 56.49148107 479.25214388 57.544727 473.91967773 57.57983398 C472.9206543 57.60045898 471.92163086 57.62108398 470.89233398 57.64233398 C468.80647938 57.66837462 466.72051263 57.68660455 464.63452148 57.69702148 C458.58132144 57.82376876 458.58132144 57.82376876 453.06811523 60.12280273 C450.93250964 62.29705052 450.93250964 62.29705052 450.88842773 65.86889648 C451.13833757 69.28359328 451.13833757 69.28359328 452.26342773 72.30639648 C455.13914143 73.26496772 457.12591206 73.46924327 460.12280273 73.55249023 C461.07413086 73.58536133 462.02545898 73.61823242 463.00561523 73.65209961 C464.99509695 73.71281756 466.98468471 73.77016399 468.97436523 73.82397461 C481.81043904 74.28240582 481.81043904 74.28240582 486.00561523 77.74389648 C489.61913355 82.72805968 490.42224127 85.48602049 490.47216797 91.53491211 C490.48195175 92.27991974 490.49173553 93.02492737 490.5018158 93.79251099 C490.53180093 96.26587133 490.55317191 98.73917707 490.57202148 101.21264648 C490.57859331 102.0588707 490.58516514 102.90509491 490.59193611 103.77696228 C490.62455434 108.26234261 490.64899083 112.74769906 490.66845703 117.2331543 C490.6862193 120.93468193 490.72095292 124.63544041 490.77099609 128.33666992 C490.83144611 132.81298829 490.86196774 137.28859748 490.87162971 141.76530457 C490.8801494 143.46526841 490.89888086 145.16521511 490.92837334 146.86494446 C491.08525887 156.42706035 491.11601798 164.82782334 484.26342773 172.30639648 C479.36074337 176.1829296 474.91698277 178.46079583 468.57592773 178.36889648 C467.76768555 178.35987305 466.95944336 178.35084961 466.12670898 178.34155273 C465.20438477 178.32415039 465.20438477 178.32415039 464.26342773 178.30639648 C464.27342049 179.37968452 464.27342049 179.37968452 464.28361511 180.47465515 C464.34380159 187.22776534 464.3894403 193.98080035 464.41886425 200.73411846 C464.43450016 204.20583758 464.45569986 207.67733452 464.48974609 211.14892578 C464.52866837 215.1428436 464.54315402 219.13652911 464.55639648 223.13061523 C464.57188034 224.37348801 464.5873642 225.61636078 464.60331726 226.89689636 C464.60354385 228.05772232 464.60377045 229.21854828 464.60400391 230.41455078 C464.61399666 231.94344185 464.61399666 231.94344185 464.62419128 233.5032196 C464.19931869 236.80453159 463.23139991 238.64092842 461.26342773 241.30639648 C457.458054 243.84331231 454.41074949 243.58789363 450.00186157 243.5670929 C448.72311474 243.57283122 448.72311474 243.57283122 447.41853464 243.57868546 C444.55117784 243.58903529 441.68402055 243.58501955 438.81665039 243.58105469 C436.76523146 243.58540009 434.71381416 243.59058266 432.66239929 243.59654236 C427.08182247 243.60996277 421.50131325 243.6105076 415.92072344 243.60797906 C411.26601881 243.6069113 406.61132798 243.61178776 401.9566263 243.61658448 C390.97685176 243.62769041 379.99711143 243.62811112 369.01733398 243.62207031 C357.68213949 243.61602993 346.3470691 243.62834074 335.01189578 243.64964038 C325.28783806 243.66724222 315.5638199 243.67325994 305.83974683 243.67000264 C300.02857363 243.66818721 294.21748893 243.67085172 288.40633011 243.68471718 C282.9414837 243.69726766 277.47683103 243.69537774 272.01198769 243.68230629 C270.00483829 243.67993481 267.99767537 243.68269557 265.99054146 243.69092941 C263.2531215 243.70135032 260.51635723 243.69333369 257.77896118 243.68061829 C256.98236355 243.68799257 256.18576593 243.69536686 255.36502898 243.7029646 C250.83038637 243.65857179 247.8591942 243.14296188 244.26342773 240.30639648 C242.78300402 237.34554905 243.08657411 234.31635596 243.05249023 231.06811523 C243.02441444 229.5934949 242.99574993 228.11888567 242.96655273 226.64428711 C242.9253496 224.32047929 242.8884616 221.99687732 242.86206055 219.67285156 C242.83436372 217.42917018 242.78848775 215.18643078 242.73999023 212.94311523 C242.73511093 211.90848396 242.73511093 211.90848396 242.73013306 210.85295105 C242.6205264 206.52695302 241.9029383 203.7566658 239.26342773 200.30639648 C236.454273 198.90181911 234.37532239 199.05744491 231.26342773 199.30639648 C228.12751203 201.08624053 227.42240038 201.82947855 226.26342773 205.30639648 C226.14587835 207.77074831 226.07843443 210.21216573 226.05249023 212.67749023 C226.02442705 214.15341289 225.99576263 215.62932421 225.96655273 217.10522461 C225.92527382 219.42691799 225.88837671 221.7483985 225.86206055 224.0703125 C225.83443006 226.31481282 225.78856988 228.5583586 225.73999023 230.80249023 C225.73673737 231.49426865 225.7334845 232.18604706 225.73013306 232.89878845 C225.62700814 236.94934065 225.23491261 239.45000742 222.26342773 242.30639648 C218.48100994 243.56720242 214.94260925 243.45447446 211.00186157 243.4535675 C210.14936368 243.45724419 209.29686579 243.46092088 208.41853464 243.46470898 C205.55123385 243.47575516 202.68396928 243.47959121 199.81665039 243.48339844 C197.76523218 243.48966226 195.71381511 243.49630898 193.66239929 243.50331116 C188.08184463 243.52072548 182.50129854 243.53127358 176.92072344 243.53951669 C173.43629717 243.54466472 169.95187357 243.55074047 166.46744919 243.55702782 C155.57141991 243.576079 144.67539742 243.59031168 133.77935469 243.59863979 C121.19012262 243.60842036 108.601066 243.63476166 96.01189578 243.67514068 C86.28784458 243.70526306 76.5638438 243.72010487 66.83974683 243.7234208 C61.0285288 243.72577522 55.21749822 243.73478702 49.40633011 243.75988197 C43.94145755 243.78310057 38.47689671 243.78742095 33.01198769 243.77712059 C31.00482842 243.77662365 28.99765413 243.78299055 26.99054146 243.79667664 C24.25297119 243.81430125 21.51653113 243.80733616 18.77896118 243.79414368 C17.58406474 243.81059755 17.58406474 243.81059755 16.36502898 243.82738382 C12.61799701 243.78370584 10.47924453 243.44487263 7.29370689 241.40091228 C4.08588743 238.09159961 4.14030369 236.17469937 4.14990234 231.66333008 C4.14997787 230.48225677 4.15005341 229.30118347 4.15013123 228.08432007 C4.15529251 226.80408966 4.1604538 225.52385925 4.16577148 224.20483398 C4.16718643 222.89809723 4.16860138 221.59136047 4.1700592 220.24502563 C4.17387879 216.76963391 4.18370431 213.29428392 4.19476318 209.81890869 C4.2049893 206.27307703 4.2095594 202.72723864 4.21459961 199.18139648 C4.22532707 192.223046 4.24239681 185.26472324 4.26342773 178.30639648 C3.64686813 178.31541489 3.03030853 178.32443329 2.39506531 178.33372498 C1.58551895 178.34073929 0.7759726 178.3477536 -0.05810547 178.35498047 C-1.26138237 178.36850807 -1.26138237 178.36850807 -2.4889679 178.38230896 C-7.23974621 178.22185219 -10.98082369 176.08183102 -14.73657227 173.30639648 C-19.75082303 167.41921947 -21.88473617 162.65843252 -21.91357422 155.0144043 C-21.92014542 154.2629715 -21.92671661 153.5115387 -21.93348694 152.73733521 C-21.9532345 150.24472965 -21.96488669 147.75218444 -21.97485352 145.25952148 C-21.97892904 144.40830467 -21.98300457 143.55708786 -21.9872036 142.6800766 C-22.00807212 138.17335756 -22.02236955 133.66666903 -22.03173828 129.15991211 C-22.04279499 124.50818246 -22.07718388 119.8569322 -22.11690998 115.20537186 C-22.14307817 111.62623211 -22.15143036 108.04720643 -22.15501976 104.46797943 C-22.15988644 102.75359617 -22.17150282 101.03921804 -22.19005775 99.32492828 C-22.21445074 96.92155722 -22.21348421 94.51942419 -22.20654297 92.1159668 C-22.21935303 91.41132294 -22.23216309 90.70667908 -22.24536133 89.98068237 C-22.19282428 84.97453804 -20.8280161 82.18626753 -17.73657227 78.30639648 C-13.58064354 74.41859219 -9.08018882 74.20145739 -3.57641602 74.13061523 C-2.13878906 74.09484375 -2.13878906 74.09484375 -0.67211914 74.05834961 C1.33026616 74.01530159 3.33294026 73.98409429 5.33569336 73.96459961 C10.98055008 73.88892226 10.98055008 73.88892226 15.91186523 71.44702148 C17.80773572 68.44431332 17.90395347 66.79370328 17.26342773 63.30639648 C15.50168461 60.42937757 15.50168461 60.42937757 12.26342773 58.30639648 C8.45368822 57.61840656 4.6890936 57.65233191 0.82592773 57.68139648 C-12.01584442 57.68139648 -12.01584442 57.68139648 -16.73657227 54.30639648 C-21.12851938 49.85312075 -22.3691951 47.45122494 -22.36547852 41.00170898 C-22.36789047 40.31889862 -22.37030243 39.63608826 -22.37278748 38.93258667 C-22.37181304 37.49544439 -22.35851557 36.0582627 -22.33349609 34.62133789 C-22.29926123 32.44341778 -22.31283309 30.26958208 -22.33227539 28.09155273 C-22.32424829 19.54838704 -21.81447254 13.03201694 -15.99047852 6.28295898 C-15.43231445 5.83694336 -14.87415039 5.39092773 -14.29907227 4.93139648 C-13.74348633 4.46991211 -13.18790039 4.00842773 -12.61547852 3.53295898 C-8.51021278 0.8530142 -4.86400836 0.05230489 0 0 Z M21.26342773 178.30639648 C21.26342773 194.14639648 21.26342773 209.98639648 21.26342773 226.30639648 C27.20342773 226.30639648 33.14342773 226.30639648 39.26342773 226.30639648 C39.30081055 223.81463867 39.33819336 221.32288086 39.37670898 218.75561523 C39.42291812 216.34284679 39.47415383 213.93023387 39.52587891 211.51757812 C39.55913637 209.8405909 39.58716581 208.16349152 39.60986328 206.48632812 C39.6433951 204.07560423 39.69570752 201.66590887 39.75170898 199.25561523 C39.75809891 198.50551682 39.76448883 197.7554184 39.77107239 196.98258972 C39.91682078 191.82466864 39.91682078 191.82466864 41.58056641 189.33691406 C44.5058364 187.54559466 46.94494372 187.89886336 50.26342773 188.30639648 C52.44799805 189.84448242 52.44799805 189.84448242 54.26342773 192.30639648 C54.68135769 195.04350125 54.86814984 197.39625754 54.87280273 200.13452148 C54.88933899 200.88352722 54.90587524 201.63253296 54.9229126 202.40423584 C54.97136283 204.78837303 54.99275545 207.1718726 55.01342773 209.55639648 C55.04159014 211.17622018 55.07151796 212.79601421 55.10327148 214.41577148 C55.18043629 218.37960546 55.22097629 222.34143164 55.26342773 226.30639648 C61.20342773 226.30639648 67.14342773 226.30639648 73.26342773 226.30639648 C73.30209961 222.69444336 73.30209961 222.69444336 73.34155273 219.00952148 C73.37998541 216.67281493 73.42514138 214.33632813 73.47094727 211.99975586 C73.49914121 210.37811812 73.52036368 208.75634335 73.53442383 207.13452148 C73.55587646 204.80047543 73.60253348 202.46807388 73.65405273 200.13452148 C73.65528137 199.41145813 73.65651001 198.68839478 73.65777588 197.94342041 C73.75628561 194.54428121 74.03836503 192.61160523 76.07885742 189.84448242 C79.24530293 187.61508963 81.48931878 187.82605535 85.26342773 188.30639648 C86.94628906 189.33691406 86.94628906 189.33691406 88.26342773 191.30639648 C88.59441686 194.02663745 88.751936 196.53098944 88.77514648 199.25561523 C88.79309769 200.02823196 88.81104889 200.80084869 88.82954407 201.59687805 C88.88368877 204.06249548 88.91755505 206.52791892 88.95092773 208.99389648 C88.98409726 210.66644955 89.01858658 212.338977 89.05444336 214.01147461 C89.14190164 218.10981042 89.20193008 222.20725974 89.26342773 226.30639648 C95.20342773 226.30639648 101.14342773 226.30639648 107.26342773 226.30639648 C107.28920898 223.89842773 107.31499023 221.49045898 107.34155273 219.00952148 C107.37998541 216.67281493 107.42514138 214.33632813 107.47094727 211.99975586 C107.49914121 210.37811812 107.52036368 208.75634335 107.53442383 207.13452148 C107.55587646 204.80047543 107.60253348 202.46807388 107.65405273 200.13452148 C107.65528137 199.41145813 107.65651001 198.68839478 107.65777588 197.94342041 C107.75628561 194.54428121 108.03836503 192.61160523 110.07885742 189.84448242 C113.24530293 187.61508963 115.48931878 187.82605535 119.26342773 188.30639648 C120.94628906 189.33691406 120.94628906 189.33691406 122.26342773 191.30639648 C122.59441686 194.02663745 122.751936 196.53098944 122.77514648 199.25561523 C122.79309769 200.02823196 122.81104889 200.80084869 122.82954407 201.59687805 C122.88368877 204.06249548 122.91755505 206.52791892 122.95092773 208.99389648 C122.98409726 210.66644955 123.01858658 212.338977 123.05444336 214.01147461 C123.14190164 218.10981042 123.20193008 222.20725974 123.26342773 226.30639648 C129.20342773 226.30639648 135.14342773 226.30639648 141.26342773 226.30639648 C141.3369043 222.80272461 141.3369043 222.80272461 141.41186523 219.22827148 C141.4659061 216.9611176 141.5232013 214.69406764 141.58081055 212.42700195 C141.61904603 210.85383883 141.65390839 209.2805899 141.68530273 207.70727539 C141.73107196 205.44312925 141.78904534 203.17957101 141.84936523 200.91577148 C141.86091644 200.21458191 141.87246765 199.51339233 141.8843689 198.79095459 C141.99302747 195.17961288 142.17301037 192.32454684 144.26342773 189.30639648 C147.31326769 187.78147651 149.90576463 188.070771 153.26342773 188.30639648 C155.87935926 190.13754855 156.23332229 191.21608015 157.26342773 194.30639648 C157.41611955 196.74420026 157.5202547 199.1592355 157.57983398 201.59936523 C157.60061508 202.30539383 157.62139618 203.01142242 157.64280701 203.73884583 C157.70810265 205.99043199 157.7670942 208.2421331 157.82592773 210.49389648 C157.86913199 212.02190308 157.91274689 213.54989813 157.95678711 215.07788086 C158.06453523 218.82060337 158.16375628 222.56341528 158.26342773 226.30639648 C163.87342773 226.30639648 169.48342773 226.30639648 175.26342773 226.30639648 C175.3369043 222.9284082 175.3369043 222.9284082 175.41186523 219.48217773 C175.46593969 217.29111323 175.52322164 215.10015431 175.58081055 212.90917969 C175.61899477 211.3913567 175.65386581 209.87344648 175.68530273 208.35546875 C175.73118401 206.16822218 175.78913802 203.98157067 175.84936523 201.79467773 C175.88078613 200.48023682 175.91220703 199.1657959 175.94458008 197.81152344 C176.24426542 194.51704988 176.73353107 192.22176377 178.26342773 189.30639648 C181.28211207 187.79705432 183.93640002 188.13128976 187.26342773 188.30639648 C190.26342773 190.30639648 190.26342773 190.30639648 191.26342773 193.30639648 C191.41639243 195.81694553 191.52037952 198.30528173 191.57983398 200.81811523 C191.60061508 201.54633987 191.62139618 202.27456451 191.64280701 203.02485657 C191.7081152 205.34777523 191.76710011 207.67080555 191.82592773 209.99389648 C191.86913079 211.57007984 191.91274566 213.14625196 191.95678711 214.72241211 C192.06455142 218.58362753 192.16376329 222.44492948 192.26342773 226.30639648 C197.87342773 226.30639648 203.48342773 226.30639648 209.26342773 226.30639648 C209.28920898 224.60612305 209.31499023 222.90584961 209.34155273 221.15405273 C209.3978617 218.89230931 209.45520839 216.63059154 209.51342773 214.36889648 C209.52760742 213.25192383 209.54178711 212.13495117 209.55639648 210.98413086 C209.80362089 202.55377878 211.15141949 196.09127138 216.57592773 189.49389648 C223.50346325 183.85520479 229.39408707 181.7062868 238.36499023 182.48999023 C244.6374852 183.70200619 251.02276602 187.0500502 254.68530273 192.37280273 C257.15849055 197.23853094 258.38543805 201.59725827 258.57983398 207.06811523 C258.64267578 208.74550781 258.64267578 208.74550781 258.70678711 210.45678711 C258.74610352 211.6240332 258.78541992 212.7912793 258.82592773 213.99389648 C258.86911133 215.17274414 258.91229492 216.3515918 258.95678711 217.56616211 C259.06293867 220.47943274 259.16369403 223.39289908 259.26342773 226.30639648 C264.87342773 226.30639648 270.48342773 226.30639648 276.26342773 226.30639648 C276.3369043 222.80272461 276.3369043 222.80272461 276.41186523 219.22827148 C276.4659061 216.9611176 276.5232013 214.69406764 276.58081055 212.42700195 C276.61904603 210.85383883 276.65390839 209.2805899 276.68530273 207.70727539 C276.73107196 205.44312925 276.78904534 203.17957101 276.84936523 200.91577148 C276.86091644 200.21458191 276.87246765 199.51339233 276.8843689 198.79095459 C276.99302747 195.17961288 277.17301037 192.32454684 279.26342773 189.30639648 C282.31326769 187.78147651 284.90576463 188.070771 288.26342773 188.30639648 C290.87935926 190.13754855 291.23332229 191.21608015 292.26342773 194.30639648 C292.41611955 196.74420026 292.5202547 199.1592355 292.57983398 201.59936523 C292.60061508 202.30539383 292.62139618 203.01142242 292.64280701 203.73884583 C292.70810265 205.99043199 292.7670942 208.2421331 292.82592773 210.49389648 C292.86913199 212.02190308 292.91274689 213.54989813 292.95678711 215.07788086 C293.06453523 218.82060337 293.16375628 222.56341528 293.26342773 226.30639648 C298.87342773 226.30639648 304.48342773 226.30639648 310.26342773 226.30639648 C310.31241211 224.0544043 310.36139648 221.80241211 310.41186523 219.48217773 C310.46593969 217.29111323 310.52322164 215.10015431 310.58081055 212.90917969 C310.61899477 211.3913567 310.65386581 209.87344648 310.68530273 208.35546875 C310.73118401 206.16822218 310.78913802 203.98157067 310.84936523 201.79467773 C310.88078613 200.48023682 310.91220703 199.1657959 310.94458008 197.81152344 C311.24426542 194.51704988 311.73353107 192.22176377 313.26342773 189.30639648 C316.28211207 187.79705432 318.93640002 188.13128976 322.26342773 188.30639648 C325.26342773 190.30639648 325.26342773 190.30639648 326.26342773 193.30639648 C326.41639243 195.81694553 326.52037952 198.30528173 326.57983398 200.81811523 C326.60061508 201.54633987 326.62139618 202.27456451 326.64280701 203.02485657 C326.7081152 205.34777523 326.76710011 207.67080555 326.82592773 209.99389648 C326.86913079 211.57007984 326.91274566 213.14625196 326.95678711 214.72241211 C327.06455142 218.58362753 327.16376329 222.44492948 327.26342773 226.30639648 C333.20342773 226.30639648 339.14342773 226.30639648 345.26342773 226.30639648 C345.30081055 223.81463867 345.33819336 221.32288086 345.37670898 218.75561523 C345.42291812 216.34284679 345.47415383 213.93023387 345.52587891 211.51757812 C345.55913637 209.8405909 345.58716581 208.16349152 345.60986328 206.48632812 C345.6433951 204.07560423 345.69570752 201.66590887 345.75170898 199.25561523 C345.75809891 198.50551682 345.76448883 197.7554184 345.77107239 196.98258972 C345.91682078 191.82466864 345.91682078 191.82466864 347.58056641 189.33691406 C350.5058364 187.54559466 352.94494372 187.89886336 356.26342773 188.30639648 C358.44799805 189.84448242 358.44799805 189.84448242 360.26342773 192.30639648 C360.68135769 195.04350125 360.86814984 197.39625754 360.87280273 200.13452148 C360.88933899 200.88352722 360.90587524 201.63253296 360.9229126 202.40423584 C360.97136283 204.78837303 360.99275545 207.1718726 361.01342773 209.55639648 C361.04159014 211.17622018 361.07151796 212.79601421 361.10327148 214.41577148 C361.18043629 218.37960546 361.22097629 222.34143164 361.26342773 226.30639648 C367.20342773 226.30639648 373.14342773 226.30639648 379.26342773 226.30639648 C379.30081055 223.81463867 379.33819336 221.32288086 379.37670898 218.75561523 C379.42291812 216.34284679 379.47415383 213.93023387 379.52587891 211.51757812 C379.55913637 209.8405909 379.58716581 208.16349152 379.60986328 206.48632812 C379.6433951 204.07560423 379.69570752 201.66590887 379.75170898 199.25561523 C379.75809891 198.50551682 379.76448883 197.7554184 379.77107239 196.98258972 C379.91682078 191.82466864 379.91682078 191.82466864 381.58056641 189.33691406 C384.5058364 187.54559466 386.94494372 187.89886336 390.26342773 188.30639648 C392.44799805 189.84448242 392.44799805 189.84448242 394.26342773 192.30639648 C394.68135769 195.04350125 394.86814984 197.39625754 394.87280273 200.13452148 C394.88933899 200.88352722 394.90587524 201.63253296 394.9229126 202.40423584 C394.97136283 204.78837303 394.99275545 207.1718726 395.01342773 209.55639648 C395.04159014 211.17622018 395.07151796 212.79601421 395.10327148 214.41577148 C395.18043629 218.37960546 395.22097629 222.34143164 395.26342773 226.30639648 C401.20342773 226.30639648 407.14342773 226.30639648 413.26342773 226.30639648 C413.28920898 223.89842773 413.31499023 221.49045898 413.34155273 219.00952148 C413.37998541 216.67281493 413.42514138 214.33632813 413.47094727 211.99975586 C413.49914121 210.37811812 413.52036368 208.75634335 413.53442383 207.13452148 C413.55587646 204.80047543 413.60253348 202.46807388 413.65405273 200.13452148 C413.65528137 199.41145813 413.65651001 198.68839478 413.65777588 197.94342041 C413.75628561 194.54428121 414.03836503 192.61160523 416.07885742 189.84448242 C419.24530293 187.61508963 421.48931878 187.82605535 425.26342773 188.30639648 C426.94628906 189.33691406 426.94628906 189.33691406 428.26342773 191.30639648 C428.59441686 194.02663745 428.751936 196.53098944 428.77514648 199.25561523 C428.80207329 200.41454033 428.80207329 200.41454033 428.82954407 201.59687805 C428.88368877 204.06249548 428.91755505 206.52791892 428.95092773 208.99389648 C428.98409726 210.66644955 429.01858658 212.338977 429.05444336 214.01147461 C429.14190164 218.10981042 429.20193008 222.20725974 429.26342773 226.30639648 C435.20342773 226.30639648 441.14342773 226.30639648 447.26342773 226.30639648 C447.26342773 210.46639648 447.26342773 194.62639648 447.26342773 178.30639648 C306.68342773 178.30639648 166.10342773 178.30639648 21.26342773 178.30639648 Z " fill="#000000" transform="translate(21.736572265625,134.693603515625)"/>
<path d="M0 0 C1.32529724 -0.00574036 1.32529724 -0.00574036 2.67736816 -0.01159668 C4.53638862 -0.01430602 6.39544783 -0.00701362 8.25439453 0.00976562 C11.08583264 0.03119009 13.91473374 0.00993145 16.74609375 -0.015625 C18.55990138 -0.01298155 20.37370745 -0.00785621 22.1875 0 C23.44560486 -0.01214539 23.44560486 -0.01214539 24.72912598 -0.02453613 C30.48705268 0.06647185 33.86395791 1.20198345 38.59375 4.53125 C43.51483965 10.74736324 43.74465555 15.68594594 43.75488281 23.39550781 C43.76233017 24.73773155 43.76233017 24.73773155 43.76992798 26.10707092 C43.78452757 29.06618013 43.79134835 32.0252357 43.796875 34.984375 C43.80262876 37.04457602 43.80838647 39.10477703 43.81414795 41.16497803 C43.82465202 45.48580169 43.83049841 49.80660678 43.83398438 54.12744141 C43.83946436 59.65319065 43.86348441 65.1786929 43.89195633 70.70436478 C43.91061825 74.96127022 43.91579023 79.21811662 43.91732025 83.47505951 C43.92033985 85.51153665 43.92834489 87.54801292 43.94150543 89.58444977 C43.9586383 92.43962664 43.95666786 95.29420606 43.95019531 98.14941406 C43.9594101 98.98398636 43.96862488 99.81855865 43.9781189 100.67842102 C43.93677931 106.52573008 43.31001254 112.60416735 39.14177322 117.09592056 C33.90174559 121.56258337 30.11983583 121.71400693 23.45703125 121.76953125 C22.54422897 121.777603 21.6314267 121.78567474 20.69096375 121.79399109 C18.75501406 121.80783767 16.8190399 121.81855725 14.88305664 121.82641602 C11.93523151 121.84358124 8.98854183 121.88745612 6.04101562 121.93164062 C4.1588624 121.94177185 2.27669965 121.95028661 0.39453125 121.95703125 C-0.91991219 121.98329338 -0.91991219 121.98329338 -2.26091003 122.01008606 C-8.16251816 121.98938116 -11.67745855 121.16496065 -16.40625 117.53125 C-20.4341074 111.87228689 -20.98610964 107.60225011 -20.92382812 100.75976562 C-20.9308374 99.804384 -20.93784668 98.84900238 -20.94506836 97.8646698 C-20.96260317 94.72197992 -20.95104132 91.58019826 -20.9375 88.4375 C-20.9401962 86.24466785 -20.94407969 84.05183686 -20.94909668 81.85900879 C-20.95498563 77.26933377 -20.94644794 72.67997071 -20.92773438 68.09033203 C-20.90494553 62.21579403 -20.91807179 56.34198709 -20.94202423 50.46747589 C-20.95649831 45.9412081 -20.95186876 41.41511279 -20.94151306 36.88883972 C-20.93885024 34.7231589 -20.94209983 32.55746228 -20.95143127 30.39179993 C-20.96162309 27.36169116 -20.94605826 24.33275603 -20.92382812 21.30273438 C-20.93192505 20.41317551 -20.94002197 19.52361664 -20.94836426 18.60710144 C-20.86912474 12.75855318 -19.81889038 9.32179828 -16.40625 4.53125 C-11.00050975 0.4210176 -6.662545 -0.06431831 0 0 Z M-4.40625 16.53125 C-4.40625 45.90125 -4.40625 75.27125 -4.40625 105.53125 C5.82375 105.53125 16.05375 105.53125 26.59375 105.53125 C26.59375 76.16125 26.59375 46.79125 26.59375 16.53125 C16.36375 16.53125 6.13375 16.53125 -4.40625 16.53125 Z " fill="#000000" transform="translate(376.40625,163.46875)"/>
<path d="M0 0 C0.88919128 -0.00807175 1.77838257 -0.01614349 2.69451904 -0.02445984 C4.5774135 -0.03828918 6.46033291 -0.04901648 8.34326172 -0.05688477 C11.20979921 -0.0740714 14.07517521 -0.11796419 16.94140625 -0.16210938 C18.77342904 -0.17223919 20.60546162 -0.18075439 22.4375 -0.1875 C23.71442719 -0.21376213 23.71442719 -0.21376213 25.01715088 -0.24055481 C30.84949722 -0.21950608 34.30435176 0.66014332 38.984375 4.23828125 C43.01334258 9.89621063 43.56423016 14.167774 43.50195312 21.00976562 C43.5089624 21.96514725 43.51597168 22.92052887 43.52319336 23.90486145 C43.54072817 27.04755133 43.52916632 30.18933299 43.515625 33.33203125 C43.5183212 35.5248634 43.52220469 37.71769439 43.52722168 39.91052246 C43.53311063 44.50019748 43.52457294 49.08956054 43.50585938 53.67919922 C43.48307053 59.55373722 43.49619679 65.42754416 43.52014923 71.30205536 C43.53462331 75.82832315 43.52999376 80.35441846 43.51963806 84.88069153 C43.51697524 87.04637235 43.52022483 89.21206897 43.52955627 91.37773132 C43.53974809 94.40784009 43.52418326 97.43677522 43.50195312 100.46679688 C43.51005005 101.35635574 43.51814697 102.24591461 43.52648926 103.16242981 C43.44724732 109.01115715 42.39596481 112.44701304 38.984375 117.23828125 C33.51876789 121.41499413 29.06878314 121.83275601 22.32421875 121.76953125 C21.41611954 121.77335815 20.50802032 121.77718506 19.57240295 121.78112793 C17.6621082 121.78383755 15.75177573 121.77654319 13.84155273 121.75976562 C10.92672735 121.73831696 8.01435947 121.75961197 5.09960938 121.78515625 C3.23697376 121.78251329 1.37433967 121.77738897 -0.48828125 121.76953125 C-1.35405289 121.77762817 -2.21982452 121.7857251 -3.11183167 121.79406738 C-8.5563069 121.7101283 -11.71001023 120.8770845 -16.015625 117.23828125 C-20.87450234 110.93487281 -21.16645753 106.1386304 -21.17675781 98.37402344 C-21.18172272 97.47920761 -21.18668762 96.58439178 -21.19180298 95.66246033 C-21.20640257 92.70335112 -21.21322335 89.74429555 -21.21875 86.78515625 C-21.22450376 84.72495523 -21.23026147 82.66475422 -21.23602295 80.60455322 C-21.24652702 76.28372956 -21.25237341 71.96292447 -21.25585938 67.64208984 C-21.26133936 62.1163406 -21.28535941 56.59083835 -21.31383133 51.06516647 C-21.33249325 46.80826103 -21.33766523 42.55141463 -21.33919525 38.29447174 C-21.34221485 36.2579946 -21.35021989 34.22151833 -21.36338043 32.18508148 C-21.3805133 29.32990461 -21.37854286 26.47532519 -21.37207031 23.62011719 C-21.3812851 22.78554489 -21.39049988 21.9509726 -21.3999939 21.09111023 C-21.35859099 15.23484487 -20.71066826 9.21507438 -16.59904861 4.67361069 C-11.32058268 0.09717684 -6.68295052 0.05744421 0 0 Z M-4.015625 16.23828125 C-4.015625 45.60828125 -4.015625 74.97828125 -4.015625 105.23828125 C6.214375 105.23828125 16.444375 105.23828125 26.984375 105.23828125 C26.984375 75.86828125 26.984375 46.49828125 26.984375 16.23828125 C16.754375 16.23828125 6.524375 16.23828125 -4.015625 16.23828125 Z " fill="#000000" transform="translate(113.015625,163.76171875)"/>
<path d="M0 0 C0.89297791 -0.00570007 1.78595581 -0.01140015 2.70599365 -0.01727295 C4.59906833 -0.02672986 6.49215952 -0.03325967 8.38525391 -0.03710938 C11.27145476 -0.04678974 14.15693589 -0.07779591 17.04296875 -0.109375 C18.88280827 -0.11590764 20.72265289 -0.12115709 22.5625 -0.125 C23.42208313 -0.1373468 24.28166626 -0.1496936 25.16729736 -0.16241455 C30.91419135 -0.14122509 35.2757938 0.675583 39.69140625 4.703125 C42.71147807 8.58174567 44.16665415 11.31061891 44.18731689 16.20600891 C44.19302704 17.01763489 44.19873718 17.82926086 44.20462036 18.66548157 C44.20629715 19.99569588 44.20629715 19.99569588 44.20800781 21.3527832 C44.21545517 22.7581282 44.21545517 22.7581282 44.22305298 24.19186401 C44.23767551 27.29588553 44.24447687 30.39985593 44.25 33.50390625 C44.25575149 35.66000876 44.26150923 37.81611126 44.26727295 39.97221375 C44.27778328 44.49571979 44.2836257 49.01920807 44.28710938 53.54272461 C44.29259332 59.33661423 44.31661923 65.13026876 44.34508133 70.92408466 C44.36371312 75.37907089 44.36891361 79.83400055 44.37044525 84.28902245 C44.37347121 86.42484001 44.38149781 88.56065659 44.39463043 90.69643593 C44.41170152 93.68623314 44.40980792 96.67545691 44.40332031 99.6652832 C44.4125351 100.54602005 44.42174988 101.4267569 44.4312439 102.33418274 C44.39228766 108.0706827 43.59006971 112.47873575 39.51171875 116.84765625 C34.02411929 121.04405584 30.67599954 121.38493016 23.875 121.44140625 C22.95982605 121.449478 22.0446521 121.45754974 21.10174561 121.46586609 C19.1615997 121.47971129 17.22142939 121.49043149 15.28125 121.49829102 C12.32244252 121.5154765 9.36476033 121.55935507 6.40625 121.60351562 C4.52084155 121.61364501 2.63542359 121.62216035 0.75 121.62890625 C-0.13145691 121.64641434 -1.01291382 121.66392242 -1.92108154 121.68196106 C-7.44106657 121.66259678 -10.57782329 120.88778895 -14.953125 117.203125 C-19.80722528 111.69306522 -20.10886632 108.17152197 -20.13012695 100.98339844 C-20.13669815 100.02714066 -20.14326935 99.07088287 -20.15003967 98.08564758 C-20.16980005 94.91126431 -20.18144172 91.73692843 -20.19140625 88.5625 C-20.19548178 87.47959938 -20.1995573 86.39669876 -20.20375633 85.28098297 C-20.22462931 79.54881479 -20.23892541 73.81667064 -20.24829102 68.08447266 C-20.25935465 62.16157235 -20.29375081 56.23904783 -20.33346272 50.31628036 C-20.35960181 45.76435647 -20.36798049 41.21252244 -20.37157249 36.66053009 C-20.37644587 34.47725132 -20.38808114 32.29397676 -20.40661049 30.11077118 C-20.43094254 27.05368758 -20.43004744 23.99758036 -20.4230957 20.94042969 C-20.43590576 20.03942032 -20.44871582 19.13841095 -20.46191406 18.21009827 C-20.41632419 12.70582357 -19.62610821 9.56652372 -15.953125 5.203125 C-10.5280473 0.42388989 -7.08195108 0.03468724 0 0 Z M-3.953125 16.203125 C-3.953125 45.573125 -3.953125 74.943125 -3.953125 105.203125 C6.276875 105.203125 16.506875 105.203125 27.046875 105.203125 C28.65031535 101.99624429 28.17610245 98.51129653 28.16040039 94.98974609 C28.16054642 94.1408934 28.16069244 93.29204071 28.1608429 92.41746521 C28.16014466 89.60380523 28.1523564 86.79021096 28.14453125 83.9765625 C28.14266675 82.02885982 28.141243 80.08115668 28.14024353 78.13345337 C28.13642083 73.00092276 28.12659265 67.86842033 28.11553955 62.73590088 C28.10532012 57.50102113 28.10074477 52.26613684 28.09570312 47.03125 C28.08497017 36.75519394 28.06737536 26.47916622 28.046875 16.203125 C17.486875 16.203125 6.926875 16.203125 -3.953125 16.203125 Z " fill="#000000" transform="translate(287.953125,163.796875)"/>
<path d="M0 0 C0.80125809 -0.01283524 1.60251617 -0.02567047 2.42805481 -0.03889465 C3.29057358 -0.04628159 4.15309235 -0.05366852 5.04174805 -0.0612793 C5.933311 -0.06935104 6.82487396 -0.07742279 7.74345398 -0.08573914 C9.63054466 -0.09956711 11.51766022 -0.11029502 13.40478516 -0.11816406 C16.28230479 -0.1353715 19.15867361 -0.17926792 22.03588867 -0.22338867 C23.8711667 -0.2335166 25.70645448 -0.24203239 27.54174805 -0.2487793 C28.82641716 -0.27504143 28.82641716 -0.27504143 30.13703918 -0.30183411 C35.59066427 -0.282154 38.65920111 0.55829434 42.9909668 4.17700195 C46.5082564 8.07453909 48.10663033 10.96748242 48.13813782 16.21784973 C48.14529312 17.03788986 48.15244843 17.85792999 48.15982056 18.70281982 C48.16250946 19.5989801 48.16519836 20.49514038 48.16796875 21.41845703 C48.17453995 22.36510727 48.18111115 23.31175751 48.18788147 24.28709412 C48.20761155 27.4235746 48.21927586 30.56000723 48.22924805 33.6965332 C48.23332357 34.76748419 48.2373991 35.83843517 48.24159813 36.94183922 C48.26245666 42.6091734 48.27675989 48.27648339 48.28613281 53.94384766 C48.29720259 59.79833975 48.33160995 65.65245234 48.37130451 71.50681019 C48.39744237 76.00811981 48.4058221 80.50933856 48.40941429 85.01071739 C48.41428679 87.16887668 48.42591957 89.32703174 48.44445229 91.48511696 C48.46878518 94.50617242 48.4678893 97.52623994 48.4609375 100.54736328 C48.47374756 101.43745087 48.48655762 102.32753845 48.49975586 103.24459839 C48.45386066 108.72057152 47.63774749 111.83323542 43.9909668 116.17700195 C38.51385876 121.00207331 34.97081067 121.35589471 27.8190918 121.4152832 C26.90391785 121.42335495 25.9887439 121.4314267 25.0458374 121.43974304 C23.1056915 121.45358825 21.16552118 121.46430845 19.2253418 121.47216797 C16.26653432 121.48935345 13.30885213 121.53323203 10.3503418 121.57739258 C8.46493334 121.58752196 6.57951539 121.5960373 4.6940918 121.6027832 C3.81263489 121.62029129 2.93117798 121.63779938 2.02301025 121.65583801 C-3.49840285 121.63646873 -6.6298972 120.85815524 -11.0090332 117.17700195 C-15.99859929 111.64802332 -16.16414837 107.2487596 -16.18603516 100.04321289 C-16.19260635 99.10792252 -16.19917755 98.17263214 -16.20594788 97.20899963 C-16.22567907 94.10979127 -16.23734325 91.01063136 -16.24731445 87.91137695 C-16.25138998 86.85270668 -16.25546551 85.79403641 -16.25966454 84.70328522 C-16.28052473 79.09963679 -16.29482656 73.49601284 -16.30419922 67.89233398 C-16.31526214 62.10744028 -16.34966113 56.32293138 -16.38937092 50.53817368 C-16.41552903 46.08743581 -16.42389037 41.63678973 -16.4274807 37.18598175 C-16.43234889 35.05376843 -16.44396944 32.92155927 -16.46251869 30.78942108 C-16.48689197 27.8020945 -16.48594818 24.81576492 -16.47900391 21.82836914 C-16.49181396 20.95122757 -16.50462402 20.074086 -16.51782227 19.17036438 C-16.46852619 13.33859225 -15.36643786 9.97526583 -12.0090332 5.17700195 C-8.17652596 1.62492207 -5.21199089 0.07292184 0 0 Z M0.9909668 16.17700195 C-0.61247356 19.38388266 -0.13826066 22.86883042 -0.12255859 26.39038086 C-0.12270462 27.23923355 -0.12285065 28.08808624 -0.1230011 28.96266174 C-0.12230286 31.77632172 -0.1145146 34.589916 -0.10668945 37.40356445 C-0.10482496 39.35126713 -0.1034012 41.29897027 -0.10240173 43.24667358 C-0.09857904 48.37920419 -0.08875085 53.51170662 -0.07769775 58.64422607 C-0.06747832 63.87910582 -0.06290297 69.11399011 -0.05786133 74.34887695 C-0.04712838 84.62493301 -0.02953356 94.90096073 -0.0090332 105.17700195 C10.5509668 105.17700195 21.1109668 105.17700195 31.9909668 105.17700195 C31.9909668 75.80700195 31.9909668 46.43700195 31.9909668 16.17700195 C21.7609668 16.17700195 11.5309668 16.17700195 0.9909668 16.17700195 Z " fill="#000000" transform="translate(196.009033203125,163.822998046875)"/>
</svg>
